<svg xmlns="http://www.w3.org/2000/svg" width="56.982" height="56.841" viewBox="0 0 56.982 56.841"><defs><style>.a{fill:#016fd0;}.b{fill:#fff;}</style></defs><path class="a" d="M55.5,1002.345h56.841v30.684l-2.813,4.4,2.813,3.912v17.848H55.5V1030.26l1.758-2.022L55.5,1026.3Z" transform="translate(-55.5 -1002.345)"/><path class="b" d="M249.14,1549.759v-8.924h9.449l1.014,1.322,1.047-1.322h34.3v8.309a3.957,3.957,0,0,1-1.934.615H274.022l-1.143-1.407v1.407h-3.745v-2.4a3.144,3.144,0,0,1-1.618.335h-1.275v2.066H260.57l-1.012-1.35-1.028,1.35Z" transform="translate(-238.106 -1510.15)"/><path class="b" d="M55.5,1340.59l2.131-4.967h3.685l1.209,2.783v-2.783h4.581l.72,2.011.7-2.011H89.086v1.011a4.436,4.436,0,0,1,2.857-1.011l6.672.023,1.188,2.746v-2.77h3.833l1.055,1.577v-1.577h3.869v8.924h-3.869l-1.011-1.582v1.582H98.049l-.566-1.407H95.968l-.557,1.407H91.591a3.776,3.776,0,0,1-2.506-.99v.99H83.327l-1.143-1.407v1.407H60.77l-.566-1.407H58.695l-.562,1.407H55.5Z" transform="translate(-55.5 -1316.632)"/><path class="a" d="M58.567,1354.929l-2.874,6.682h1.871l.53-1.338h3.083l.528,1.338h1.912l-2.871-6.682Zm1.063,1.555.94,2.338H58.688Z" transform="translate(-55.682 -1334.838)"/><path class="a" d="M198.223,1361.591v-6.682l2.659.01,1.547,4.308,1.509-4.318h2.638v6.682H204.9v-4.924l-1.771,4.924h-1.465l-1.776-4.924v4.924Z" transform="translate(-190.09 -1334.819)"/><path class="a" d="M364.861,1361.591v-6.682h5.451v1.494h-3.763v1.143h3.675v1.407h-3.675v1.187h3.763v1.45Z" transform="translate(-347.233 -1334.819)"/><path class="a" d="M477.5,1354.929v6.682h1.671v-2.374h.7l2,2.374h2.041l-2.2-2.462a2.035,2.035,0,0,0,1.833-2.052,2.162,2.162,0,0,0-2.335-2.168Zm1.671,1.495h1.909a.767.767,0,0,1,.791.7.755.755,0,0,1-.767.7h-1.934Z" transform="translate(-453.45 -1334.838)"/><path class="a" d="M597.392,1361.591h-1.706v-6.682h1.706Z" transform="translate(-564.906 -1334.819)"/><path class="a" d="M643.123,1361.591h-.368c-1.781,0-2.863-1.4-2.863-3.313a3.061,3.061,0,0,1,3.319-3.369h1.846v1.583h-1.914a1.607,1.607,0,0,0-1.559,1.8,1.636,1.636,0,0,0,1.8,1.838h.44Z" transform="translate(-606.592 -1334.819)"/><path class="a" d="M712.826,1354.929l-2.874,6.682h1.871l.53-1.338h3.083l.527,1.338h1.912L715,1354.929Zm1.063,1.555.94,2.338h-1.882Z" transform="translate(-672.66 -1334.838)"/><path class="a" d="M852.433,1361.591v-6.682h2.124l2.712,4.2v-4.2h1.671v6.682h-2.055l-2.78-4.308v4.308Z" transform="translate(-807.022 -1334.819)"/><path class="a" d="M269.2,1566.8v-6.682h5.451v1.495h-3.763v1.143h3.675v1.407h-3.675v1.187h3.763v1.451Z" transform="translate(-257.021 -1528.338)"/><path class="a" d="M737.947,1566.8v-6.682H743.4v1.495h-3.763v1.143h3.657v1.407h-3.657v1.187H743.4v1.451Z" transform="translate(-699.059 -1528.338)"/><path class="a" d="M367.528,1566.8l2.654-3.3-2.717-3.382h2.1l1.618,2.091,1.624-2.091h2.022l-2.682,3.341,2.659,3.341h-2.1l-1.571-2.058L369.6,1566.8Z" transform="translate(-349.689 -1528.338)"/><path class="a" d="M499.869,1560.141v6.682h1.715v-2.11h1.758a2.311,2.311,0,0,0,2.616-2.324,2.2,2.2,0,0,0-2.4-2.248Zm1.715,1.511h1.852a.754.754,0,0,1,.824.769.771.771,0,0,1-.83.769h-1.846Z" transform="translate(-474.548 -1528.357)"/><path class="a" d="M619.448,1560.121v6.682h1.671v-2.374h.7l2,2.374h2.041l-2.2-2.462a2.035,2.035,0,0,0,1.833-2.052,2.161,2.161,0,0,0-2.335-2.168Zm1.671,1.495h1.91a.767.767,0,0,1,.791.7.755.755,0,0,1-.766.7h-1.934Z" transform="translate(-587.313 -1528.338)"/><path class="a" d="M843.677,1566.8v-1.451h3.343c.495,0,.709-.267.709-.561s-.214-.565-.709-.565H845.51a1.868,1.868,0,0,1-2.045-2c0-1.072.67-2.1,2.621-2.1h3.253l-.7,1.5h-2.813c-.538,0-.7.282-.7.552a.582.582,0,0,0,.615.582h1.583a1.833,1.833,0,0,1,2.1,1.918,2,2,0,0,1-2.179,2.127Z" transform="translate(-798.565 -1528.338)"/><path class="a" d="M951.274,1566.8v-1.451h3.343c.495,0,.709-.267.709-.561s-.214-.565-.709-.565h-1.511a1.868,1.868,0,0,1-2.044-2c0-1.072.67-2.1,2.621-2.1h3.253l-.7,1.5h-2.813c-.538,0-.7.282-.7.552a.582.582,0,0,0,.615.582h1.583a1.833,1.833,0,0,1,2.1,1.918,2,2,0,0,1-2.179,2.127Z" transform="translate(-900.031 -1528.338)"/></svg>