<svg xmlns="http://www.w3.org/2000/svg" width="117.1" height="43.836" viewBox="0 0 117.1 43.836"><defs><style>.a{fill:#011277;}.b{fill:#48a09c;}</style></defs><path class="a" d="M97.6,239.466c2.721-3.786,5.679-5.62,10.353-5.62,7.986,0,13.074,6.212,13.074,15.736,0,9.7-5.384,16.327-13.488,16.327-4.5,0-7.632-1.834-9.643-5.206h-.118c.118,1.183.177,5.5.177,7.276v9.7H88.61v-33.72c0-3.194-.06-6.8-.3-9.347h8.933c.118,1.242.237,3.313.237,4.851Zm.118,10.412c0,5.324,2.78,9.051,7.04,9.051s6.744-3.668,6.744-9.229c0-5.384-2.544-8.755-6.685-8.755C100.56,240.945,97.72,244.672,97.72,249.878Z" transform="translate(-88.314 -233.846)"/><path class="a" d="M243.3,260.112c-2.012,3.432-5.5,5.68-10.471,5.68-6.093,0-10.589-3.727-10.589-9.584,0-6.685,5.8-10.116,15.972-10.116,1.242,0,2.9.059,4.377.177,0-4.259-2.366-6.034-6.862-6.034a21.212,21.212,0,0,0-9.7,2.6l-.3-6.744a28.784,28.784,0,0,1,11.477-2.248c9.879,0,14.079,4.673,14.079,12.719,0,1.952-.118,5.206-.118,7.69a101.4,101.4,0,0,0,.414,10.944h-8.105a13.134,13.134,0,0,1-.177-2.425c0-.651.059-1.6.118-2.662Zm-3.017-8.933c-5.856,0-9.11,1.3-9.11,4.555,0,2.6,1.775,3.845,4.555,3.845,4.023,0,6.981-2.721,6.981-8.282C242,251.239,241.17,251.179,240.283,251.179Z" transform="translate(-187.131 -233.846)"/><path class="a" d="M367.421,242.01a18.463,18.463,0,0,0-7.927-1.893c-2.662,0-4.437,1.065-4.437,2.9,0,1.716,1.006,2.366,5.62,3.609,5.206,1.42,9.229,3.313,9.229,9.288,0,6.448-5.324,10-13.37,10a32.935,32.935,0,0,1-10.234-1.6l.473-6.981a22.725,22.725,0,0,0,9.406,2.189c2.485,0,4.614-1.006,4.614-2.9,0-1.775-.947-2.485-5.916-3.964-6.211-1.775-8.755-4.082-8.755-9.051,0-5.975,4.91-9.761,12.837-9.761a23.612,23.612,0,0,1,9.17,1.538Z" transform="translate(-278.539 -233.846)"/><path class="a" d="M465.581,242.01a18.465,18.465,0,0,0-7.927-1.893c-2.662,0-4.437,1.065-4.437,2.9,0,1.716,1.006,2.366,5.62,3.609,5.206,1.42,9.229,3.313,9.229,9.288,0,6.448-5.324,10-13.37,10a32.935,32.935,0,0,1-10.234-1.6l.473-6.981a22.724,22.724,0,0,0,9.406,2.189c2.485,0,4.614-1.006,4.614-2.9,0-1.775-.947-2.485-5.916-3.964-6.211-1.775-8.755-4.082-8.755-9.051,0-5.975,4.91-9.761,12.837-9.761a23.611,23.611,0,0,1,9.17,1.538Z" transform="translate(-350.965 -233.846)"/><g transform="translate(12.839 32.74)"><g transform="translate(0)"><path class="b" d="M142.782,372.981a3.266,3.266,0,0,0-1.232-.238,1.907,1.907,0,0,0-1.989,2.1,1.87,1.87,0,0,0,2.031,2.073,2.994,2.994,0,0,0,1.274-.253l.084,1.667a5.06,5.06,0,0,1-1.667.252c-2.423,0-3.992-1.429-3.992-3.74a3.657,3.657,0,0,1,3.936-3.712,5.273,5.273,0,0,1,1.709.224Z" transform="translate(-137.291 -367.882)"/><path class="b" d="M167.555,377.031a2.718,2.718,0,0,1-2.479,1.344,2.282,2.282,0,0,1-2.507-2.269c0-1.583,1.373-2.4,3.782-2.4.294,0,.687.014,1.037.042,0-1.008-.56-1.429-1.625-1.429a5.028,5.028,0,0,0-2.3.616l-.07-1.6a6.821,6.821,0,0,1,2.718-.532c2.339,0,3.333,1.106,3.333,3.011,0,.462-.028,1.232-.028,1.821a24,24,0,0,0,.1,2.591H167.6a3.106,3.106,0,0,1-.042-.574c0-.154.014-.378.028-.63Zm-.714-2.115c-1.387,0-2.157.308-2.157,1.079,0,.616.42.91,1.079.91.952,0,1.653-.644,1.653-1.961C167.247,374.93,167.051,374.916,166.841,374.916Z" transform="translate(-155.942 -367.646)"/><path class="b" d="M197.068,372.479a2.133,2.133,0,0,1,2.115-1.667,2.18,2.18,0,0,1,.7.1l-.056,1.863a2.167,2.167,0,0,0-.742-.112c-1.275,0-1.835.91-1.835,2.815v2.76h-2.227v-5.085c0-.771-.014-1.555-.07-2.157h2.017c.028.294.07,1.079.07,1.485Z" transform="translate(-179.837 -367.646)"/><path class="b" d="M221.173,368.051a2.568,2.568,0,0,1-2.451,1.443c-1.947,0-3.194-1.5-3.194-3.824,0-2.227,1.3-3.767,3.207-3.767A2.441,2.441,0,0,1,221,363.176h.028c-.028-.616-.042-1.4-.042-2.1v-2.339h2.2v8.432c0,.756.014,1.555.07,2.157h-2.031c-.014-.322-.028-.785-.028-1.275Zm-3.39-2.367c0,1.26.63,2.157,1.611,2.157s1.667-.9,1.667-2.129c0-1.275-.672-2.143-1.708-2.143C218.4,363.568,217.783,364.437,217.783,365.683Z" transform="translate(-195.018 -358.736)"/></g></g></svg>