<svg xmlns="http://www.w3.org/2000/svg" width="73.059" height="57" viewBox="0 0 73.059 57"><defs><style>.a{fill:rgba(236,0,0,0.05);}.b{fill:#ec0000;}</style></defs><g transform="translate(-161 -1096)"><rect class="a" width="47" height="47" transform="translate(161 1096)"/><g transform="translate(4.727 -1.164)"><path class="b" d="M51.172,50.48H24.5V48.226H51.172Z" transform="translate(159.543 1103.683)"/><path class="b" d="M50.268,42.37H24.817V40.219H50.268Z" transform="translate(159.833 1096.396)"/><path class="b" d="M27.271,39.934H43.35V37.786H27.271Z" transform="translate(162.066 1094.182)"/><path class="b" d="M39.3,37.712h-2.43v2.43H39.3Z" transform="translate(170.801 1094.115)"/><path class="b" d="M27.247,37.712h-2.43v2.43h2.43Z" transform="translate(159.833 1094.115)"/><path class="b" d="M33.113,44.151H30.687v2.427h2.427Z" transform="translate(165.175 1099.975)"/><path class="b" d="M14.75,22.25V66.265H42.931V64.011H17V24.5H76.407V64.011H49.871v2.255H78.662V22.25Z" transform="translate(150.671 1083.75)"/></g></g></svg>