<svg xmlns="http://www.w3.org/2000/svg" width="41.484" height="35.813" viewBox="0 0 41.484 35.813"><defs><style>.a{fill:#ec0000;}</style></defs><path class="a" d="M24.439,43.869a1.845,1.845,0,1,1,1.845-1.845A1.847,1.847,0,0,1,24.439,43.869Zm0-5.557a3.713,3.713,0,1,0,3.714,3.712A3.716,3.716,0,0,0,24.439,38.312Z" transform="translate(-6.583 -9.925)"/><path class="a" d="M36.318,43.869a1.845,1.845,0,1,1,1.845-1.845A1.847,1.847,0,0,1,36.318,43.869Zm0-5.557a3.713,3.713,0,1,0,3.714,3.712A3.716,3.716,0,0,0,36.318,38.312Z" transform="translate(-3.285 -9.925)"/><path class="a" d="M20.541,20.238l-1.3-4.144H9.656v1.869h8.212l.714,2.275Z" transform="translate(-9.656 -16.094)"/><path class="a" d="M19.816,20.55l.554,1.869H45.757l-5.1,15.873H25.476l.49,1.869H42.019l6.3-19.611Z" transform="translate(-6.835 -14.857)"/><path class="a" d="M17.963,23.5l3.952,12.3h1.964L19.927,23.5Z" transform="translate(-7.35 -14.038)"/><path class="a" d="M18.977,20.534H17l.606,1.89h1.977Z" transform="translate(-7.617 -14.861)"/><path class="a" d="M23.444,34.41H21.467l.609,1.89h1.975Z" transform="translate(-6.377 -11.008)"/></svg>