<svg xmlns="http://www.w3.org/2000/svg" width="15" height="11.667" viewBox="0 0 15 11.667"><defs><style>.a{fill:#ec0000;}</style></defs><path class="a" d="M16.428,4.193a.992.992,0,0,0-.716.35l-7.683,8.6L4.178,9.809a1,1,0,0,0-.363-.2.934.934,0,0,0-.405-.032.967.967,0,0,0-.385.144,1.086,1.086,0,0,0-.307.3,1.225,1.225,0,0,0-.181.407,1.3,1.3,0,0,0-.028.454,1.263,1.263,0,0,0,.129.431,1.137,1.137,0,0,0,.266.343l4.58,3.963a.966.966,0,0,0,.7.243.994.994,0,0,0,.67-.337L17.183,6.2a1.211,1.211,0,0,0,.3-.6,1.3,1.3,0,0,0-.061-.686,1.143,1.143,0,0,0-.4-.528A.959.959,0,0,0,16.428,4.193Z" transform="translate(-2.5 -4.193)"/></svg>