<svg xmlns="http://www.w3.org/2000/svg" width="38" height="38" viewBox="0 0 38 38"><defs><style>.a{fill:rgba(236,0,0,0.05);}.b{fill:#ec0000;}</style></defs><g transform="translate(-783 -4684)"><rect class="a" width="38" height="38" transform="translate(783 4684)"/><g transform="translate(794 4695)"><g transform="translate(0 0)"><path class="b" d="M14.328,34.449A8.353,8.353,0,0,0,1.185,44.526L0,48.852l4.427-1.162A8.325,8.325,0,0,0,8.418,48.7h0a8.3,8.3,0,0,0,5.906-14.256ZM8.422,47.3a6.928,6.928,0,0,1-3.536-.967l-.252-.15-2.626.688.7-2.562-.166-.263a6.954,6.954,0,1,1,12.9-3.69A7.018,7.018,0,0,1,8.422,47.3Zm3.807-5.2c-.207-.105-1.234-.609-1.426-.677s-.331-.105-.47.105-.538.677-.662.82-.244.158-.451.053a5.68,5.68,0,0,1-2.84-2.483c-.214-.369.214-.342.613-1.14a.387.387,0,0,0-.019-.365c-.053-.105-.47-1.132-.643-1.55s-.342-.35-.47-.357-.26-.008-.4-.008a.773.773,0,0,0-.557.26,2.345,2.345,0,0,0-.73,1.742,4.088,4.088,0,0,0,.85,2.159,9.324,9.324,0,0,0,3.566,3.152,4.083,4.083,0,0,0,2.505.523,2.137,2.137,0,0,0,1.407-.993,1.745,1.745,0,0,0,.12-.993C12.575,42.254,12.436,42.2,12.229,42.1Z" transform="translate(0 -32)"/></g></g></g></svg>