<?xml version="1.0" encoding="utf-8"?>
<!-- Generator: Adobe Illustrator 25.3.1, SVG Export Plug-In . SVG Version: 6.00 Build 0)  -->
<svg version="1.1" id="Layer_1" xmlns="http://www.w3.org/2000/svg" xmlns:xlink="http://www.w3.org/1999/xlink" x="0px" y="0px"
	 viewBox="0 0 53.6 57" style="enable-background:new 0 0 53.6 57;" xml:space="preserve">
<style type="text/css">
	.st0{fill:#EC0000;}
	.st1{clip-path:url(#SVGID_2_);fill:url(#SVGID_3_);}
</style>
<g transform="translate(239 1083.836)">
	<path class="st0" d="M-206.3-1060.2l-0.9-0.9l-6.1,5.7l-2.6-2.4l-0.9,0.9l3.5,3.3L-206.3-1060.2z"/>
	<path class="st0" d="M-223.2-1068.4h-1.1v1.1h1.1V-1068.4z"/>
	<path class="st0" d="M-221.1-1067.4h18.9v-1.1h-18.9V-1067.4z"/>
	<path class="st0" d="M-201.3-1066.3v13.5l-10.8,8.9l-10.8-8.9v-13.5h-1.3v14.2l12.1,10l12.1-10v-14.2H-201.3z"/>
	<path class="st0" d="M-200.1-1068.4h-1.1v1.1h1.1V-1068.4z"/>
</g>
<g>
	<defs>
		<path id="SVGID_1_" d="M52.7,14.2c0-3.1-2.5-5.5-5.5-5.5c-1.2,0-2.3,0.4-3.2,1c-4.8-4.4-10.9-6.9-17.4-6.9
			C12.4,2.8,0.9,14.3,0.9,28.5s11.5,25.7,25.7,25.7c14.2,0,25.7-11.5,25.7-25.7c0-3.4-0.7-6.6-1.9-9.7
			C51.8,17.8,52.7,16.1,52.7,14.2z M50.7,14.2c0,2-1.6,3.6-3.6,3.6c-2,0-3.6-1.6-3.6-3.6s1.6-3.6,3.6-3.6
			C49.1,10.7,50.7,12.3,50.7,14.2z M50.1,28.5c0,13-10.6,23.5-23.5,23.5C13.6,52,3,41.5,3,28.5S13.6,5,26.6,5c6,0,11.6,2.2,16,6.3
			c-0.6,0.9-0.9,1.9-0.9,3c0,3.1,2.5,5.5,5.5,5.5c0.4,0,0.8-0.1,1.2-0.1C49.5,22.4,50.1,25.4,50.1,28.5z"/>
	</defs>
	<clipPath id="SVGID_2_">
		<use xlink:href="#SVGID_1_"  style="overflow:visible;"/>
	</clipPath>
	
		<linearGradient id="SVGID_3_" gradientUnits="userSpaceOnUse" x1="-1182.4908" y1="60.0062" x2="-1182.4908" y2="-5.0062" gradientTransform="matrix(-1 0 0 -1 -1155.6908 56)">
		<stop  offset="0" style="stop-color:#EC0000"/>
		<stop  offset="1" style="stop-color:#9E3667"/>
	</linearGradient>
	<polygon class="st1" points="-3.7,-4 57.3,-4 57.3,61 -3.7,61 	"/>
</g>
</svg>
