<svg xmlns="http://www.w3.org/2000/svg" width="34.979" height="35.615" viewBox="0 0 34.979 35.615"><defs><style>.a{fill:#ec0000;}</style></defs><path class="a" d="M25.444,38.4A8.639,8.639,0,0,1,20.9,37.2l.758-1.207a7.2,7.2,0,0,0,3.789.985c2.351,0,3.7-1.023,3.7-2.809a2.758,2.758,0,0,0-1.61-2.66l.709-1.239a4.167,4.167,0,0,1,2.33,3.9C30.572,36.78,28.608,38.4,25.444,38.4Z" transform="translate(-8.263 -11.627)"/><path class="a" d="M25.862,31.182l-1.377-.62.585-1.3,1.377.62Z" transform="translate(-7.819 -11.752)"/><path class="a" d="M23.545,30.714a4.065,4.065,0,0,1-2.408-3.8c0-2.5,1.808-3.989,4.836-3.989a9.566,9.566,0,0,1,4.043.847l-.587,1.3a8.2,8.2,0,0,0-3.456-.72c-1.556,0-3.41.447-3.41,2.563a2.605,2.605,0,0,0,1.659,2.544Z" transform="translate(-8.234 -12.537)"/><path class="a" d="M25.844,23.817H24.418V21.5h1.426Z" transform="translate(-7.827 -12.714)"/><path class="a" d="M25.844,39.328H24.418V36.871h1.426Z" transform="translate(-7.827 -10.809)"/><path class="a" d="M40.992,25.127a17.527,17.527,0,0,0-8.118-8.746l2.95-.917-.552-1.781-6.1,1.9,1.9,6.1,1.781-.552-.982-3.161a15.615,15.615,0,0,1-3.9,29.282v1.894a17.5,17.5,0,0,0,13.03-24.022Z" transform="translate(-7.388 -13.683)"/><path class="a" d="M23.69,46.927a15.394,15.394,0,0,1-2.625-.831,15.634,15.634,0,0,1,0-28.8l-.728-1.716A17.494,17.494,0,0,0,23.69,48.848Z" transform="translate(-9.656 -13.447)"/><path class="a" d="M26.174,43.709H24.153v1.867h2.021Z" transform="translate(-7.86 -9.961)"/></svg>