<svg xmlns="http://www.w3.org/2000/svg" width="35.736" height="34.423" viewBox="0 0 35.736 34.423"><defs><style>.a{fill:rgba(236,0,0,0.05);}.b{fill:#ec0000;}</style></defs><g transform="translate(-284.47 -94)"><rect class="a" width="28" height="28" transform="translate(284.47 94)"/><g transform="translate(289.995 99.629)"><rect class="b" width="7.838" height="1.65" transform="translate(15.044 21.015) rotate(-45)"/><rect class="b" width="3.243" height="1.65" transform="matrix(0.709, -0.705, 0.705, 0.709, 19.385, 21.73)"/><rect class="b" width="1.65" height="1.54" transform="translate(26.874 23.866)"/><path class="b" d="M272.828,163.644V149.014a3.712,3.712,0,0,0,.927-.811,3.666,3.666,0,0,0,5.7,0,3.669,3.669,0,0,0,2.851,1.362,3.709,3.709,0,0,0,2.88-1.368,3.709,3.709,0,0,0,2.88,1.368c.123,0,.244-.007.367-.018v9.06h1.65v-9.649a3.673,3.673,0,0,0,1.662-3.072v-2.476a.823.823,0,0,0-.1-.407l-3.481-6.114a.825.825,0,0,0-.718-.419H265.959a.825.825,0,0,0-.714.411L261.7,143a.826.826,0,0,0-.111.414v2.475a3.673,3.673,0,0,0,1.662,3.072v14.685H261.56v1.65h30.212v-1.65Zm-9.592-20.01,3.2-5.513h20.529l3.131,5.509v2.257a2.04,2.04,0,0,1-4.081,0h-1.649a2.041,2.041,0,0,1-4.082,0h-1.65a2.026,2.026,0,1,1-4.052,0h-1.649a2.029,2.029,0,0,1-2.026,2.026,1.99,1.99,0,0,1-2-2.026h-1.65a1.99,1.99,0,0,1-2,2.026,2.028,2.028,0,0,1-2.026-2.026Zm1.662,5.911c.119.012.241.018.364.018a3.629,3.629,0,0,0,2.821-1.351,3.628,3.628,0,0,0,2.822,1.351c.092,0,.183-.007.274-.014v5.708h-1.9v1.65h1.9v6.737H264.9Z" transform="translate(-261.56 -136.5)"/></g></g></svg>