<svg xmlns="http://www.w3.org/2000/svg" width="38" height="38" viewBox="0 0 38 38"><defs><style>.a{fill:rgba(236,0,0,0.05);}.b{fill:#ec0000;}</style></defs><g transform="translate(-835 -4699)"><rect class="a" width="38" height="38" transform="translate(835 4699)"/><path class="b" d="M3.666,16.389H.271V5.453h3.4ZM1.967,3.962A1.976,1.976,0,1,1,3.933,1.977,1.983,1.983,0,0,1,1.967,3.962ZM16.376,16.389H12.987V11.065c0-1.269-.026-2.9-1.766-2.9-1.766,0-2.036,1.378-2.036,2.8v5.415H5.793V5.453H9.05V6.945H9.1a3.568,3.568,0,0,1,3.213-1.766c3.437,0,4.069,2.263,4.069,5.2v6.007Z" transform="translate(846 4709.99)"/></g></svg>