<?xml version="1.0" encoding="utf-8"?>
<!-- Generator: Adobe Illustrator 25.3.1, SVG Export Plug-In . SVG Version: 6.00 Build 0)  -->
<svg version="1.1" id="Layer_1" xmlns="http://www.w3.org/2000/svg" xmlns:xlink="http://www.w3.org/1999/xlink" x="0px" y="0px"
	 viewBox="0 0 53.6 57.2" style="enable-background:new 0 0 53.6 57.2;" xml:space="preserve">
<style type="text/css">
	.st0{fill:#EC0000;}
	.st1{clip-path:url(#SVGID_2_);fill:url(#SVGID_3_);}
</style>
<g transform="translate(291.793 1220.844)">
	<path class="st0" d="M-260.2-1198.1h-9.4v-1.2c0-2.6,2.1-4.7,4.7-4.7s4.7,2.1,4.7,4.7L-260.2-1198.1L-260.2-1198.1z M-259-1198.1
		v-1.2c0-3.3-2.7-6-6-6s-6,2.7-6,6v1.2h-8.8l6,18.9h6.9v-1.2h-6l-5.2-16.4h26.2l-5.2,16.4h-5.6v1.2h6.5l6-18.9H-259z"/>
	<path class="st0" d="M-264-1180.4h-1.3v1.2h1.3V-1180.4z"/>
</g>
<g>
	<defs>
		<path id="SVGID_1_" d="M52.7,14.3c0-3.1-2.5-5.5-5.5-5.5c-1.2,0-2.3,0.4-3.2,1c-4.8-4.4-10.9-6.9-17.4-6.9
			C12.4,2.9,0.9,14.4,0.9,28.6s11.5,25.7,25.7,25.7c14.2,0,25.7-11.5,25.7-25.7c0-3.4-0.7-6.6-1.9-9.7
			C51.8,17.9,52.7,16.2,52.7,14.3z M50.7,14.3c0,2-1.6,3.6-3.6,3.6c-2,0-3.6-1.6-3.6-3.6s1.6-3.6,3.6-3.6
			C49.1,10.8,50.7,12.4,50.7,14.3z M50.1,28.6c0,13-10.6,23.5-23.5,23.5C13.6,52.1,3,41.6,3,28.6S13.6,5.1,26.6,5.1
			c6,0,11.6,2.2,16,6.3c-0.6,0.9-0.9,1.9-0.9,3c0,3.1,2.5,5.5,5.5,5.5c0.4,0,0.8-0.1,1.2-0.1C49.5,22.5,50.1,25.5,50.1,28.6z"/>
	</defs>
	<clipPath id="SVGID_2_">
		<use xlink:href="#SVGID_1_"  style="overflow:visible;"/>
	</clipPath>
	
		<linearGradient id="SVGID_3_" gradientUnits="userSpaceOnUse" x1="-1182.4908" y1="61.9062" x2="-1182.4908" y2="-3.1062" gradientTransform="matrix(-1 0 0 -1 -1155.6908 58)">
		<stop  offset="0" style="stop-color:#EC0000"/>
		<stop  offset="1" style="stop-color:#9E3667"/>
	</linearGradient>
	<polygon class="st1" points="-3.7,-3.9 57.3,-3.9 57.3,61.1 -3.7,61.1 	"/>
</g>
</svg>
