<?xml version="1.0" encoding="utf-8"?>
<!-- Generator: Adobe Illustrator 25.3.1, SVG Export Plug-In . SVG Version: 6.00 Build 0)  -->
<svg version="1.1" id="Layer_1" xmlns="http://www.w3.org/2000/svg" xmlns:xlink="http://www.w3.org/1999/xlink" x="0px" y="0px"
	 viewBox="0 0 53.6 57" style="enable-background:new 0 0 53.6 57;" xml:space="preserve">
<style type="text/css">
	.st0{fill:#EC0000;}
	.st1{clip-path:url(#SVGID_2_);fill:url(#SVGID_3_);}
</style>
<g transform="translate(4.727 -1.164)">
	<path class="st0" d="M28.2,40.7H16v-1h12.2V40.7z"/>
	<path class="st0" d="M27.9,33.6H16.3v-1H28v1H27.9z"/>
	<path class="st0" d="M18.5,31.5h7.3v-1h-7.3V31.5z"/>
	<path class="st0" d="M27.9,30.5h-1.1v1.1h1.1V30.5z"/>
	<path class="st0" d="M17.5,30.5h-1.1v1.1h1.1V30.5z"/>
	<path class="st0" d="M22.5,36.1h-1.1v1.1h1.1V36.1z"/>
	<path class="st0" d="M7.5,18.7v20.1h12.9v-1H8.6V19.7h27.2v18.1H23.5v1h13.1V18.7H7.5z"/>
</g>
<g>
	<defs>
		<path id="SVGID_1_" d="M52.7,14.2c0-3.1-2.5-5.5-5.5-5.5c-1.2,0-2.3,0.4-3.2,1c-4.8-4.4-10.9-6.9-17.4-6.9
			C12.4,2.8,0.9,14.3,0.9,28.5s11.5,25.7,25.7,25.7c14.2,0,25.7-11.5,25.7-25.7c0-3.4-0.7-6.6-1.9-9.7
			C51.8,17.8,52.7,16.1,52.7,14.2z M50.7,14.2c0,2-1.6,3.6-3.6,3.6c-2,0-3.6-1.6-3.6-3.6s1.6-3.6,3.6-3.6
			C49.1,10.7,50.7,12.3,50.7,14.2z M50.1,28.5c0,13-10.6,23.5-23.5,23.5C13.6,52,3,41.5,3,28.5S13.6,5,26.6,5c6,0,11.6,2.2,16,6.3
			c-0.6,0.9-0.9,1.9-0.9,3c0,3.1,2.5,5.5,5.5,5.5c0.4,0,0.8-0.1,1.2-0.1C49.5,22.4,50.1,25.4,50.1,28.5z"/>
	</defs>
	<clipPath id="SVGID_2_">
		<use xlink:href="#SVGID_1_"  style="overflow:visible;"/>
	</clipPath>
	
		<linearGradient id="SVGID_3_" gradientUnits="userSpaceOnUse" x1="-1182.4908" y1="60.0062" x2="-1182.4908" y2="-5.0062" gradientTransform="matrix(-1 0 0 -1 -1155.6908 56)">
		<stop  offset="0" style="stop-color:#EC0000"/>
		<stop  offset="1" style="stop-color:#9E3667"/>
	</linearGradient>
	<polygon class="st1" points="-3.7,-4 57.3,-4 57.3,61 -3.7,61 	"/>
</g>
</svg>
