<svg xmlns="http://www.w3.org/2000/svg" width="13.823" height="13.82" viewBox="0 0 13.823 13.82"><defs><style>.a{fill:#9e3667;}</style></defs><path class="a" d="M6.838,35.192a3.543,3.543,0,1,0,3.543,3.543A3.538,3.538,0,0,0,6.838,35.192Zm0,5.847a2.3,2.3,0,1,1,2.3-2.3A2.308,2.308,0,0,1,6.838,41.038Zm4.515-5.992a.826.826,0,1,1-.826-.826A.825.825,0,0,1,11.352,35.047Zm2.347.839a4.09,4.09,0,0,0-1.116-2.9,4.117,4.117,0,0,0-2.9-1.116c-1.141-.065-4.561-.065-5.7,0a4.111,4.111,0,0,0-2.9,1.113,4.1,4.1,0,0,0-1.116,2.9c-.065,1.141-.065,4.561,0,5.7a4.09,4.09,0,0,0,1.116,2.9,4.122,4.122,0,0,0,2.9,1.116c1.141.065,4.561.065,5.7,0a4.09,4.09,0,0,0,2.9-1.116,4.117,4.117,0,0,0,1.116-2.9C13.764,40.443,13.764,37.026,13.7,35.885Zm-1.474,6.923a2.332,2.332,0,0,1-1.314,1.314,15.23,15.23,0,0,1-4.074.278,15.349,15.349,0,0,1-4.074-.278,2.332,2.332,0,0,1-1.314-1.314,15.23,15.23,0,0,1-.278-4.074,15.349,15.349,0,0,1,.278-4.074,2.332,2.332,0,0,1,1.314-1.314,15.23,15.23,0,0,1,4.074-.278,15.349,15.349,0,0,1,4.074.278,2.332,2.332,0,0,1,1.314,1.314,15.23,15.23,0,0,1,.278,4.074A15.221,15.221,0,0,1,12.225,42.808Z" transform="translate(0.075 -31.825)"/></svg>