<svg xmlns="http://www.w3.org/2000/svg" xmlns:xlink="http://www.w3.org/1999/xlink" width="171" height="135.834" viewBox="0 0 171 135.834"><defs><style>.a{fill:#fff;}.b{fill:#ff5f00;}.c{fill:#eb001b;}.d{fill:#f79e1b;}.e{filter:url(#a);}</style><filter id="a" x="0" y="0" width="171" height="135.834" filterUnits="userSpaceOnUse"><feOffset dy="3" input="SourceAlpha"/><feGaussianBlur stdDeviation="3" result="b"/><feFlood flood-opacity="0.161"/><feComposite operator="in" in2="b"/><feComposite in="SourceGraphic"/></filter></defs><g transform="translate(-687 -395)"><g class="e" transform="matrix(1, 0, 0, 1, 687, 395)"><path class="a" d="M0,117.834H153V0L0,9.587Z" transform="translate(9 6)"/></g><g transform="translate(727 432)"><g transform="translate(0 0)"><g transform="translate(0)"><rect class="b" width="24.811" height="44.582" transform="translate(33.476 6.065)"/><path class="c" d="M2933.785,2267.858a28.43,28.43,0,0,1,10.792-22.291,28.356,28.356,0,1,0,0,44.581A28.313,28.313,0,0,1,2933.785,2267.858Z" transform="translate(-2898.734 -2239.502)"/><path class="d" d="M3445.01,2267.858a28.325,28.325,0,0,1-45.842,22.291,28.418,28.418,0,0,0,0-44.581,28.325,28.325,0,0,1,45.842,22.291Z" transform="translate(-3353.247 -2239.502)"/></g></g></g></g></svg>