<svg xmlns="http://www.w3.org/2000/svg" xmlns:xlink="http://www.w3.org/1999/xlink" width="77.398" height="77.398" viewBox="0 0 77.398 77.398"><defs><style>.a,.b{fill-rule:evenodd;}.a{fill:url(#a);}.b{fill:#fff;}.c{filter:url(#b);}</style><linearGradient id="a" x1="0.5" x2="0.5" y2="1" gradientUnits="objectBoundingBox"><stop offset="0" stop-color="#4ac14b"/><stop offset="1" stop-color="#06853a"/></linearGradient><filter id="b" x="0" y="0" width="77.398" height="77.398" filterUnits="userSpaceOnUse"><feOffset dy="3" input="SourceAlpha"/><feGaussianBlur stdDeviation="3" result="c"/><feFlood flood-opacity="0.161"/><feComposite operator="in" in2="c"/><feComposite in="SourceGraphic"/></filter></defs><g transform="translate(-97.866 -77.866)"><path class="a" d="M155.041,101.311a25.66,25.66,0,0,0-25.733,25.534,25.268,25.268,0,0,0,4.9,14.971L131,151.3l9.887-3.141a25.6,25.6,0,1,0,14.159-46.844Z" transform="translate(-17.785 -13.825)"/><g transform="translate(106.866 83.866)"><g class="c" transform="matrix(1, 0, 0, 1, -9, -6)"><path class="b" d="M166.264,112.8a29.207,29.207,0,0,1-43.253,25.332l-16.145,5.131,5.263-15.523a28.63,28.63,0,0,1-4.183-14.94,29.16,29.16,0,0,1,58.318,0ZM137.106,88.474A24.447,24.447,0,0,0,112.59,112.8a24.075,24.075,0,0,0,4.669,14.263L114.2,136.1l9.42-2.993a24.391,24.391,0,1,0,13.489-44.629Zm14.724,30.991c-.181-.3-.658-.473-1.369-.828s-4.231-2.071-4.886-2.307-1.134-.355-1.608.354-1.847,2.307-2.265,2.781-.832.532-1.547.177a19.554,19.554,0,0,1-5.749-3.519,21.573,21.573,0,0,1-3.977-4.912c-.415-.709-.041-1.092.313-1.446.322-.319.716-.828,1.073-1.241a4.86,4.86,0,0,0,.715-1.186,1.288,1.288,0,0,0-.061-1.241c-.177-.354-1.608-3.844-2.2-5.266s-1.189-1.364-1.608-1.364a10.308,10.308,0,0,0-1.187.123,4.039,4.039,0,0,0-2.087.887,7.928,7.928,0,0,0-2.5,5.913c0,3.49,2.559,6.864,2.916,7.334s4.943,7.869,12.21,10.709,7.267,1.892,8.578,1.772,4.228-1.714,4.824-3.371a5.894,5.894,0,0,0,.419-3.371Zm0,0" transform="translate(-97.87 -77.87)"/></g></g></g></svg>