<svg xmlns="http://www.w3.org/2000/svg" width="197.272" height="169.787" viewBox="0 0 197.272 169.787"><defs><style>.a{opacity:0.2;}.b{fill:#6f7779;}</style></defs><g class="a" transform="translate(-183.128 -200.311)"><path class="b" d="M185.567,205.19a2.439,2.439,0,1,0-2.439-2.439A2.441,2.441,0,0,0,185.567,205.19Z" transform="translate(0 0)"/><path class="b" d="M199.967,205.19a2.439,2.439,0,1,0-2.439-2.439A2.44,2.44,0,0,0,199.967,205.19Z" transform="translate(13.085 0)"/><circle class="b" cx="2.439" cy="2.439" r="2.439" transform="translate(238.097 200.311)"/><path class="b" d="M228.767,205.19a2.439,2.439,0,1,0-2.439-2.439A2.44,2.44,0,0,0,228.767,205.19Z" transform="translate(39.254 0)"/><path class="b" d="M243.166,205.19a2.439,2.439,0,1,0-2.437-2.439A2.44,2.44,0,0,0,243.166,205.19Z" transform="translate(52.34 0)"/><path class="b" d="M257.567,205.19a2.439,2.439,0,1,0-2.439-2.439A2.441,2.441,0,0,0,257.567,205.19Z" transform="translate(65.423 0)"/><path class="b" d="M271.967,205.19a2.439,2.439,0,1,0-2.439-2.439A2.44,2.44,0,0,0,271.967,205.19Z" transform="translate(78.508 0)"/><circle class="b" cx="2.439" cy="2.439" r="2.439" transform="translate(375.521 200.311)"/><path class="b" d="M192.767,219.59a2.439,2.439,0,1,0-2.439-2.439A2.44,2.44,0,0,0,192.767,219.59Z" transform="translate(-7.2 13.085)"/><path class="b" d="M207.166,219.59a2.439,2.439,0,1,0-2.437-2.439A2.44,2.44,0,0,0,207.166,219.59Z" transform="translate(5.885 13.085)"/><path class="b" d="M221.567,219.59a2.439,2.439,0,1,0-2.439-2.439A2.441,2.441,0,0,0,221.567,219.59Z" transform="translate(18.969 13.085)"/><path class="b" d="M235.967,219.59a2.439,2.439,0,1,0-2.439-2.439A2.44,2.44,0,0,0,235.967,219.59Z" transform="translate(32.054 13.085)"/><circle class="b" cx="2.439" cy="2.439" r="2.439" transform="translate(293.066 227.795)"/><path class="b" d="M264.767,219.59a2.439,2.439,0,1,0-2.439-2.439A2.44,2.44,0,0,0,264.767,219.59Z" transform="translate(58.223 13.085)"/><path class="b" d="M279.166,219.59a2.439,2.439,0,1,0-2.437-2.439A2.44,2.44,0,0,0,279.166,219.59Z" transform="translate(71.309 13.085)"/><path class="b" d="M293.567,219.59a2.439,2.439,0,1,0-2.439-2.439A2.441,2.441,0,0,0,293.567,219.59Z" transform="translate(84.392 13.085)"/><path class="b" d="M185.567,233.99a2.439,2.439,0,1,0-2.439-2.439A2.441,2.441,0,0,0,185.567,233.99Z" transform="translate(0 26.169)"/><path class="b" d="M199.967,233.99a2.439,2.439,0,1,0-2.439-2.439A2.44,2.44,0,0,0,199.967,233.99Z" transform="translate(13.085 26.169)"/><path class="b" d="M214.367,233.99a2.439,2.439,0,1,0-2.439-2.439A2.44,2.44,0,0,0,214.367,233.99Z" transform="translate(26.169 26.169)"/><path class="b" d="M228.767,233.99a2.439,2.439,0,1,0-2.439-2.439A2.44,2.44,0,0,0,228.767,233.99Z" transform="translate(39.254 26.169)"/><path class="b" d="M243.166,233.99a2.439,2.439,0,1,0-2.437-2.439A2.44,2.44,0,0,0,243.166,233.99Z" transform="translate(52.34 26.169)"/><path class="b" d="M257.567,233.99a2.439,2.439,0,1,0-2.439-2.439A2.441,2.441,0,0,0,257.567,233.99Z" transform="translate(65.423 26.169)"/><path class="b" d="M271.967,233.99a2.439,2.439,0,1,0-2.439-2.439A2.44,2.44,0,0,0,271.967,233.99Z" transform="translate(78.508 26.169)"/><path class="b" d="M286.367,233.99a2.439,2.439,0,1,0-2.439-2.439A2.44,2.44,0,0,0,286.367,233.99Z" transform="translate(91.593 26.169)"/><path class="b" d="M192.767,248.39a2.439,2.439,0,1,0-2.439-2.439A2.439,2.439,0,0,0,192.767,248.39Z" transform="translate(-7.2 39.254)"/><path class="b" d="M207.166,248.39a2.439,2.439,0,1,0-2.437-2.439A2.439,2.439,0,0,0,207.166,248.39Z" transform="translate(5.885 39.254)"/><path class="b" d="M221.567,248.39a2.439,2.439,0,1,0-2.439-2.439A2.44,2.44,0,0,0,221.567,248.39Z" transform="translate(18.969 39.254)"/><path class="b" d="M235.967,248.39a2.439,2.439,0,1,0-2.439-2.439A2.439,2.439,0,0,0,235.967,248.39Z" transform="translate(32.054 39.254)"/><path class="b" d="M250.367,248.39a2.439,2.439,0,1,0-2.439-2.439A2.439,2.439,0,0,0,250.367,248.39Z" transform="translate(45.138 39.254)"/><path class="b" d="M264.767,248.39a2.439,2.439,0,1,0-2.439-2.439A2.439,2.439,0,0,0,264.767,248.39Z" transform="translate(58.223 39.254)"/><path class="b" d="M279.166,248.39a2.439,2.439,0,1,0-2.437-2.439A2.439,2.439,0,0,0,279.166,248.39Z" transform="translate(71.309 39.254)"/><path class="b" d="M293.567,248.39a2.439,2.439,0,1,0-2.439-2.439A2.44,2.44,0,0,0,293.567,248.39Z" transform="translate(84.392 39.254)"/><path class="b" d="M185.567,262.788a2.438,2.438,0,1,0-2.439-2.437A2.438,2.438,0,0,0,185.567,262.788Z" transform="translate(0 52.339)"/><path class="b" d="M199.967,262.788a2.438,2.438,0,1,0-2.439-2.437A2.437,2.437,0,0,0,199.967,262.788Z" transform="translate(13.085 52.339)"/><path class="b" d="M214.367,262.788a2.438,2.438,0,1,0-2.439-2.437A2.437,2.437,0,0,0,214.367,262.788Z" transform="translate(26.169 52.339)"/><path class="b" d="M228.767,262.788a2.438,2.438,0,1,0-2.439-2.437A2.437,2.437,0,0,0,228.767,262.788Z" transform="translate(39.254 52.339)"/><path class="b" d="M243.166,262.788a2.438,2.438,0,1,0-2.437-2.437A2.437,2.437,0,0,0,243.166,262.788Z" transform="translate(52.34 52.339)"/><path class="b" d="M257.567,262.788a2.438,2.438,0,1,0-2.439-2.437A2.438,2.438,0,0,0,257.567,262.788Z" transform="translate(65.423 52.339)"/><path class="b" d="M271.967,262.788a2.438,2.438,0,1,0-2.439-2.437A2.437,2.437,0,0,0,271.967,262.788Z" transform="translate(78.508 52.339)"/><path class="b" d="M286.367,262.788a2.438,2.438,0,1,0-2.439-2.437A2.437,2.437,0,0,0,286.367,262.788Z" transform="translate(91.593 52.339)"/><path class="b" d="M192.767,277.19a2.439,2.439,0,1,0-2.439-2.439A2.439,2.439,0,0,0,192.767,277.19Z" transform="translate(-7.2 65.424)"/><path class="b" d="M207.166,277.19a2.439,2.439,0,1,0-2.437-2.439A2.439,2.439,0,0,0,207.166,277.19Z" transform="translate(5.885 65.424)"/><path class="b" d="M221.567,277.19a2.439,2.439,0,1,0-2.439-2.439A2.44,2.44,0,0,0,221.567,277.19Z" transform="translate(18.969 65.424)"/><path class="b" d="M235.967,277.19a2.439,2.439,0,1,0-2.439-2.439A2.439,2.439,0,0,0,235.967,277.19Z" transform="translate(32.054 65.424)"/><circle class="b" cx="2.439" cy="2.439" r="2.439" transform="translate(293.066 337.734)"/><path class="b" d="M264.767,277.19a2.439,2.439,0,1,0-2.439-2.439A2.439,2.439,0,0,0,264.767,277.19Z" transform="translate(58.223 65.424)"/><path class="b" d="M279.166,277.19a2.439,2.439,0,1,0-2.437-2.439A2.439,2.439,0,0,0,279.166,277.19Z" transform="translate(71.309 65.424)"/><path class="b" d="M293.567,277.19a2.439,2.439,0,1,0-2.439-2.439A2.44,2.44,0,0,0,293.567,277.19Z" transform="translate(84.392 65.424)"/><path class="b" d="M185.567,291.59a2.439,2.439,0,1,0-2.439-2.439A2.441,2.441,0,0,0,185.567,291.59Z" transform="translate(0 78.508)"/><path class="b" d="M199.967,291.59a2.439,2.439,0,1,0-2.439-2.439A2.44,2.44,0,0,0,199.967,291.59Z" transform="translate(13.085 78.508)"/><circle class="b" cx="2.439" cy="2.439" r="2.439" transform="translate(238.097 365.219)"/><path class="b" d="M228.767,291.59a2.439,2.439,0,1,0-2.439-2.439A2.44,2.44,0,0,0,228.767,291.59Z" transform="translate(39.254 78.508)"/><path class="b" d="M243.166,291.59a2.439,2.439,0,1,0-2.437-2.439A2.44,2.44,0,0,0,243.166,291.59Z" transform="translate(52.34 78.508)"/><path class="b" d="M257.567,291.59a2.439,2.439,0,1,0-2.439-2.439A2.441,2.441,0,0,0,257.567,291.59Z" transform="translate(65.423 78.508)"/><path class="b" d="M271.967,291.59a2.439,2.439,0,1,0-2.439-2.439A2.44,2.44,0,0,0,271.967,291.59Z" transform="translate(78.508 78.508)"/><circle class="b" cx="2.439" cy="2.439" r="2.439" transform="translate(375.521 365.219)"/></g></svg>