<svg xmlns="http://www.w3.org/2000/svg" width="17" height="22.667" viewBox="0 0 17 22.667"><defs><style>.a{fill:#960000;}</style></defs><path class="a" d="M9.917,6.021V0H1.063A1.06,1.06,0,0,0,0,1.063V21.6a1.06,1.06,0,0,0,1.063,1.063H15.938A1.06,1.06,0,0,0,17,21.6V7.083H10.979A1.066,1.066,0,0,1,9.917,6.021ZM12.8,15.584H9.917v3.542a.708.708,0,0,1-.708.708H7.792a.708.708,0,0,1-.708-.708V15.584H4.2a.708.708,0,0,1-.5-1.211l4.269-4.237a.755.755,0,0,1,1.064,0L13.3,14.373A.708.708,0,0,1,12.8,15.584ZM16.69,4.648,12.356.31A1.062,1.062,0,0,0,11.6,0h-.27V5.667H17V5.4A1.059,1.059,0,0,0,16.69,4.648Z"/></svg>