<svg xmlns="http://www.w3.org/2000/svg" width="219.359" height="169.787" viewBox="0 0 219.359 169.787"><defs><style>.a{opacity:0.2;}.b{fill:#fff;}</style></defs><g class="a" transform="translate(-183.128 -200.311)"><path class="b" d="M185.567,205.19a2.439,2.439,0,1,0-2.439-2.439A2.441,2.441,0,0,0,185.567,205.19Z" transform="translate(0 0)"/><path class="b" d="M199.967,205.19a2.439,2.439,0,1,0-2.439-2.439A2.44,2.44,0,0,0,199.967,205.19Z" transform="translate(13.085 0)"/><circle class="b" cx="2.439" cy="2.439" r="2.439" transform="translate(244.408 200.311)"/><path class="b" d="M228.767,205.19a2.439,2.439,0,1,0-2.439-2.439A2.44,2.44,0,0,0,228.767,205.19Z" transform="translate(48.72 0)"/><path class="b" d="M243.166,205.19a2.439,2.439,0,1,0-2.437-2.439A2.44,2.44,0,0,0,243.166,205.19Z" transform="translate(64.961 0)"/><path class="b" d="M257.567,205.19a2.439,2.439,0,1,0-2.439-2.439A2.441,2.441,0,0,0,257.567,205.19Z" transform="translate(81.2 0)"/><path class="b" d="M271.967,205.19a2.439,2.439,0,1,0-2.439-2.439A2.44,2.44,0,0,0,271.967,205.19Z" transform="translate(100.595 0)"/><circle class="b" cx="2.439" cy="2.439" r="2.439" transform="translate(397.608 200.311)"/><path class="b" d="M192.767,219.59a2.439,2.439,0,1,0-2.439-2.439A2.44,2.44,0,0,0,192.767,219.59Z" transform="translate(-7.2 13.085)"/><path class="b" d="M207.166,219.59a2.439,2.439,0,1,0-2.437-2.439A2.44,2.44,0,0,0,207.166,219.59Z" transform="translate(5.885 13.085)"/><path class="b" d="M221.567,219.59a2.439,2.439,0,1,0-2.439-2.439A2.441,2.441,0,0,0,221.567,219.59Z" transform="translate(25.28 13.085)"/><path class="b" d="M235.967,219.59a2.439,2.439,0,1,0-2.439-2.439A2.44,2.44,0,0,0,235.967,219.59Z" transform="translate(41.519 13.085)"/><circle class="b" cx="2.439" cy="2.439" r="2.439" transform="translate(305.687 227.795)"/><path class="b" d="M264.767,219.59a2.439,2.439,0,1,0-2.439-2.439A2.44,2.44,0,0,0,264.767,219.59Z" transform="translate(73.999 13.085)"/><path class="b" d="M279.166,219.59a2.439,2.439,0,1,0-2.437-2.439A2.44,2.44,0,0,0,279.166,219.59Z" transform="translate(93.395 13.085)"/><path class="b" d="M293.567,219.59a2.439,2.439,0,1,0-2.439-2.439A2.441,2.441,0,0,0,293.567,219.59Z" transform="translate(106.479 13.085)"/><path class="b" d="M185.567,233.99a2.439,2.439,0,1,0-2.439-2.439A2.441,2.441,0,0,0,185.567,233.99Z" transform="translate(0 26.169)"/><path class="b" d="M199.967,233.99a2.439,2.439,0,1,0-2.439-2.439A2.44,2.44,0,0,0,199.967,233.99Z" transform="translate(13.085 26.169)"/><path class="b" d="M214.367,233.99a2.439,2.439,0,1,0-2.439-2.439A2.44,2.44,0,0,0,214.367,233.99Z" transform="translate(32.48 26.169)"/><path class="b" d="M228.767,233.99a2.439,2.439,0,1,0-2.439-2.439A2.44,2.44,0,0,0,228.767,233.99Z" transform="translate(48.72 26.169)"/><path class="b" d="M243.166,233.99a2.439,2.439,0,1,0-2.437-2.439A2.44,2.44,0,0,0,243.166,233.99Z" transform="translate(64.961 26.169)"/><path class="b" d="M257.567,233.99a2.439,2.439,0,1,0-2.439-2.439A2.441,2.441,0,0,0,257.567,233.99Z" transform="translate(81.2 26.169)"/><path class="b" d="M271.967,233.99a2.439,2.439,0,1,0-2.439-2.439A2.44,2.44,0,0,0,271.967,233.99Z" transform="translate(100.595 26.169)"/><path class="b" d="M286.367,233.99a2.439,2.439,0,1,0-2.439-2.439A2.44,2.44,0,0,0,286.367,233.99Z" transform="translate(113.68 26.169)"/><path class="b" d="M192.767,248.39a2.439,2.439,0,1,0-2.439-2.439A2.439,2.439,0,0,0,192.767,248.39Z" transform="translate(-7.2 39.254)"/><path class="b" d="M207.166,248.39a2.439,2.439,0,1,0-2.437-2.439A2.439,2.439,0,0,0,207.166,248.39Z" transform="translate(5.885 39.254)"/><path class="b" d="M221.567,248.39a2.439,2.439,0,1,0-2.439-2.439A2.44,2.44,0,0,0,221.567,248.39Z" transform="translate(25.28 39.254)"/><path class="b" d="M235.967,248.39a2.439,2.439,0,1,0-2.439-2.439A2.439,2.439,0,0,0,235.967,248.39Z" transform="translate(41.519 39.254)"/><path class="b" d="M250.367,248.39a2.439,2.439,0,1,0-2.439-2.439A2.439,2.439,0,0,0,250.367,248.39Z" transform="translate(57.759 39.254)"/><path class="b" d="M264.767,248.39a2.439,2.439,0,1,0-2.439-2.439A2.439,2.439,0,0,0,264.767,248.39Z" transform="translate(73.999 39.254)"/><path class="b" d="M279.166,248.39a2.439,2.439,0,1,0-2.437-2.439A2.439,2.439,0,0,0,279.166,248.39Z" transform="translate(93.395 39.254)"/><path class="b" d="M293.567,248.39a2.439,2.439,0,1,0-2.439-2.439A2.44,2.44,0,0,0,293.567,248.39Z" transform="translate(106.479 39.254)"/><path class="b" d="M185.567,262.788a2.438,2.438,0,1,0-2.439-2.437A2.438,2.438,0,0,0,185.567,262.788Z" transform="translate(0 52.339)"/><path class="b" d="M199.967,262.788a2.438,2.438,0,1,0-2.439-2.437A2.437,2.437,0,0,0,199.967,262.788Z" transform="translate(13.085 52.339)"/><path class="b" d="M214.367,262.788a2.438,2.438,0,1,0-2.439-2.437A2.437,2.437,0,0,0,214.367,262.788Z" transform="translate(32.48 52.339)"/><path class="b" d="M228.767,262.788a2.438,2.438,0,1,0-2.439-2.437A2.437,2.437,0,0,0,228.767,262.788Z" transform="translate(48.72 52.339)"/><path class="b" d="M243.166,262.788a2.438,2.438,0,1,0-2.437-2.437A2.437,2.437,0,0,0,243.166,262.788Z" transform="translate(64.961 52.339)"/><path class="b" d="M257.567,262.788a2.438,2.438,0,1,0-2.439-2.437A2.438,2.438,0,0,0,257.567,262.788Z" transform="translate(81.2 52.339)"/><path class="b" d="M271.967,262.788a2.438,2.438,0,1,0-2.439-2.437A2.437,2.437,0,0,0,271.967,262.788Z" transform="translate(100.595 52.339)"/><path class="b" d="M286.367,262.788a2.438,2.438,0,1,0-2.439-2.437A2.437,2.437,0,0,0,286.367,262.788Z" transform="translate(113.68 52.339)"/><path class="b" d="M192.767,277.19a2.439,2.439,0,1,0-2.439-2.439A2.439,2.439,0,0,0,192.767,277.19Z" transform="translate(-7.2 65.424)"/><path class="b" d="M207.166,277.19a2.439,2.439,0,1,0-2.437-2.439A2.439,2.439,0,0,0,207.166,277.19Z" transform="translate(5.885 65.424)"/><path class="b" d="M221.567,277.19a2.439,2.439,0,1,0-2.439-2.439A2.44,2.44,0,0,0,221.567,277.19Z" transform="translate(25.28 65.424)"/><path class="b" d="M235.967,277.19a2.439,2.439,0,1,0-2.439-2.439A2.439,2.439,0,0,0,235.967,277.19Z" transform="translate(41.519 65.424)"/><circle class="b" cx="2.439" cy="2.439" r="2.439" transform="translate(305.687 337.734)"/><path class="b" d="M264.767,277.19a2.439,2.439,0,1,0-2.439-2.439A2.439,2.439,0,0,0,264.767,277.19Z" transform="translate(73.999 65.424)"/><path class="b" d="M279.166,277.19a2.439,2.439,0,1,0-2.437-2.439A2.439,2.439,0,0,0,279.166,277.19Z" transform="translate(93.395 65.424)"/><path class="b" d="M293.567,277.19a2.439,2.439,0,1,0-2.439-2.439A2.44,2.44,0,0,0,293.567,277.19Z" transform="translate(106.479 65.424)"/><path class="b" d="M185.567,291.59a2.439,2.439,0,1,0-2.439-2.439A2.441,2.441,0,0,0,185.567,291.59Z" transform="translate(0 78.508)"/><path class="b" d="M199.967,291.59a2.439,2.439,0,1,0-2.439-2.439A2.44,2.44,0,0,0,199.967,291.59Z" transform="translate(13.085 78.508)"/><circle class="b" cx="2.439" cy="2.439" r="2.439" transform="translate(244.408 365.219)"/><path class="b" d="M228.767,291.59a2.439,2.439,0,1,0-2.439-2.439A2.44,2.44,0,0,0,228.767,291.59Z" transform="translate(48.72 78.508)"/><path class="b" d="M243.166,291.59a2.439,2.439,0,1,0-2.437-2.439A2.44,2.44,0,0,0,243.166,291.59Z" transform="translate(64.961 78.508)"/><path class="b" d="M257.567,291.59a2.439,2.439,0,1,0-2.439-2.439A2.441,2.441,0,0,0,257.567,291.59Z" transform="translate(81.2 78.508)"/><path class="b" d="M271.967,291.59a2.439,2.439,0,1,0-2.439-2.439A2.44,2.44,0,0,0,271.967,291.59Z" transform="translate(100.595 78.508)"/><circle class="b" cx="2.439" cy="2.439" r="2.439" transform="translate(397.608 365.219)"/></g></svg>