<?xml version="1.0" encoding="utf-8"?>
<!-- Generator: Adobe Illustrator 25.3.1, SVG Export Plug-In . SVG Version: 6.00 Build 0)  -->
<svg version="1.1" id="Layer_1" xmlns="http://www.w3.org/2000/svg" xmlns:xlink="http://www.w3.org/1999/xlink" x="0px" y="0px"
	 viewBox="0 0 34.9 34.4" style="enable-background:new 0 0 34.9 34.4;" xml:space="preserve">
<style type="text/css">
	.st0{fill:#EC0000;}
	.st1{clip-path:url(#SVGID_2_);fill:url(#SVGID_3_);}
</style>
<g transform="translate(289.995 99.336)">
	<path class="st0" d="M-272.5-88.7c-1.3,0-2.3,1-2.3,2.3s1,2.3,2.3,2.3c1.3,0,2.3-1,2.3-2.3c0,0,0,0,0,0
		C-270.2-87.7-271.3-88.7-272.5-88.7z M-272.5-85.1c-0.7,0-1.2-0.6-1.2-1.2s0.6-1.2,1.2-1.2s1.2,0.6,1.2,1.2c0,0,0,0,0,0
		C-271.3-85.7-271.8-85.1-272.5-85.1z"/>
	<path class="st0" d="M-267-92.4h-11c-1.1,0-2,0.9-2,2v16.7c0,1.1,0.9,2,2,2h7.4v-1.1h-7.4c-0.5,0-0.9-0.4-0.9-0.9v-3.3h12.8v3.3
		c0,0.5-0.4,0.9-0.9,0.9h-0.5v1.1h0.5c1.1,0,2-0.9,2-2v-16.7C-265.1-91.6-266-92.4-267-92.4z M-275.3-78.1l0.3-3.4
		c0.1-0.4,0.4-0.8,0.9-0.8h3.1c0.4,0,0.8,0.3,0.9,0.8l0.3,3.4L-275.3-78.1z M-268.7-78.1l-0.4-3.5c-0.1-1-0.9-1.7-1.9-1.7h-3.1
		c-1,0-1.8,0.8-1.9,1.7l-0.4,3.5h-2.5v-12.4c0-0.5,0.4-0.9,0.9-0.9h11c0.5,0,0.9,0.4,0.9,0.9v12.4H-268.7z"/>
	<rect x="-269.6" y="-72.9" class="st0" width="1" height="1.1"/>
	<rect x="-277.7" y="-75.5" class="st0" width="1.9" height="1.1"/>
</g>
<g>
	<g>
		<defs>
			<path id="SVGID_1_" d="M34.2,7.9c0-2-1.6-3.6-3.6-3.6c-0.8,0-1.5,0.3-2.1,0.6c-3.1-2.9-7.1-4.5-11.3-4.5C8.1,0.6,0.7,8,0.7,17.2
				s7.5,16.6,16.6,16.6S34,26.4,34,17.2c0-2.2-0.5-4.3-1.2-6.3C33.7,10.3,34.2,9.2,34.2,7.9z M32.9,7.9c0,1.3-1,2.3-2.3,2.3
				c-1.3,0-2.3-1-2.3-2.3s1-2.3,2.3-2.3C31.9,5.7,32.9,6.7,32.9,7.9z M32.6,17.2c0,8.4-6.9,15.2-15.2,15.2C8.9,32.4,2,25.6,2,17.2
				S8.9,2,17.3,2c3.9,0,7.5,1.4,10.4,4.1c-0.4,0.6-0.6,1.2-0.6,1.9c0,2,1.6,3.6,3.6,3.6c0.3,0,0.5-0.1,0.8-0.1
				C32.2,13.3,32.6,15.2,32.6,17.2z"/>
		</defs>
		<clipPath id="SVGID_2_">
			<use xlink:href="#SVGID_1_"  style="overflow:visible;"/>
		</clipPath>
		
			<linearGradient id="SVGID_3_" gradientUnits="userSpaceOnUse" x1="-2509.1501" y1="706.1567" x2="-2509.1501" y2="748.2663" gradientTransform="matrix(-1 0 0 1 -2491.6909 -710)">
			<stop  offset="0" style="stop-color:#EC0000"/>
			<stop  offset="1" style="stop-color:#9E3667"/>
		</linearGradient>
		<polygon class="st1" points="-2.3,-3.8 37.2,-3.8 37.2,38.3 -2.3,38.3 		"/>
	</g>
</g>
</svg>
