<?xml version="1.0" encoding="utf-8"?>
<!-- Generator: Adobe Illustrator 25.3.1, SVG Export Plug-In . SVG Version: 6.00 Build 0)  -->
<svg version="1.1" id="Layer_1" xmlns="http://www.w3.org/2000/svg" xmlns:xlink="http://www.w3.org/1999/xlink" x="0px" y="0px"
	 viewBox="0 0 38 38" style="enable-background:new 0 0 38 38;" xml:space="preserve">
<style type="text/css">
	.st0{fill:#FFFFFF;}
	.st1{clip-path:url(#SVGID_2_);fill:#FFFFFF;}
</style>
<path class="st0" d="M26.9,22.5l-3.7-1.6c-0.3-0.1-0.7,0-0.9,0.2l-1.6,2c-2.6-1.2-4.6-3.3-5.8-5.8l2-1.6c0.3-0.2,0.4-0.6,0.2-0.9
	l-1.6-3.7c-0.2-0.3-0.5-0.5-0.9-0.5l-3.4,0.8c-0.4,0.1-0.6,0.4-0.6,0.8c0,8.4,6.8,15.2,15.2,15.2l0,0c0.4,0,0.7-0.3,0.8-0.6l0.8-3.4
	C27.5,23,27.3,22.6,26.9,22.5z"/>
<g>
	<g>
		<defs>
			<path id="SVGID_1_" d="M38,8.5c0-2.2-1.8-4.1-4.1-4.1c-0.9,0-1.7,0.3-2.3,0.7c-3.5-3.2-8-5-12.8-5C8.4,0.2,0,8.6,0,19
				s8.4,18.8,18.8,18.8S37.6,29.4,37.6,19c0-2.5-0.5-4.9-1.4-7.1C37.3,11.1,38,9.9,38,8.5z M36.6,8.5c0,1.4-1.2,2.6-2.6,2.6
				c-1.4,0-2.6-1.2-2.6-2.6s1.2-2.6,2.6-2.6S36.6,7.1,36.6,8.5z M36.1,19c0,9.5-7.7,17.3-17.3,17.3C9.3,36.3,1.6,28.5,1.6,19
				S9.3,1.7,18.8,1.7c4.4,0,8.5,1.6,11.7,4.6c-0.4,0.6-0.7,1.4-0.7,2.2c0,2.2,1.8,4.1,4.1,4.1c0.3,0,0.6,0,0.9-0.1
				C35.7,14.6,36.1,16.7,36.1,19z"/>
		</defs>
		<use xlink:href="#SVGID_1_"  style="overflow:visible;fill:#FFFFFF;"/>
		<clipPath id="SVGID_2_">
			<use xlink:href="#SVGID_1_"  style="overflow:visible;"/>
		</clipPath>
		<polygon class="st1" points="-3.4,-4.8 41.4,-4.8 41.4,42.8 -3.4,42.8 		"/>
	</g>
</g>
</svg>
