<?xml version="1.0" encoding="utf-8"?>
<!-- Generator: Adobe Illustrator 25.3.1, SVG Export Plug-In . SVG Version: 6.00 Build 0)  -->
<svg version="1.1" id="Layer_1" xmlns="http://www.w3.org/2000/svg" xmlns:xlink="http://www.w3.org/1999/xlink" x="0px" y="0px"
	 viewBox="0 0 52.2 51.4" style="enable-background:new 0 0 52.2 51.4;" xml:space="preserve">
<style type="text/css">
	.st0{fill:#6F7779;}
	.st1{clip-path:url(#SVGID_3_);fill:#6F7779;}
</style>
<path class="st0" d="M41.5,36.5l-2-1.9c0-0.2,0.1-0.4,0.1-0.6V14.6c0.1-1.7-1.2-3.1-2.9-3.2H13.2c-1.7,0.1-3,1.6-2.9,3.2V34
	c-0.1,1.7,1.2,3.1,2.9,3.2h21.9l2.8,2.8L41.5,36.5z M38,37.7l-3.6-3.6l1.2-1.2l3.6,3.6L38,37.7z M35.6,30.6l-1.2,1.2l-0.7-0.7
	c1.9-2.4,2.2-5.7,0.6-8.4l1.2-1.9l2.4,3.3V33L35.6,30.6z M23.7,22.3c2.3-2.3,6-2.3,8.3,0s2.3,6,0,8.3s-6,2.3-8.3,0
	C22.6,29.5,22,28,22,26.5C22,24.8,22.6,23.4,23.7,22.3L23.7,22.3z M21.7,22.1l2.1-3.9l0.8,1.5c-0.8,0.4-1.4,0.8-2,1.4
	C22.3,21.4,22,21.7,21.7,22.1L21.7,22.1z M13.2,12.9h23.5c0.8,0.1,1.3,0.8,1.2,1.6v6.8l-2.5-3.4l-2.1,3.3c-0.1-0.1-0.1-0.1-0.1-0.2
	c-1.8-1.8-4.5-2.6-7-2l-2.3-4.5l-6,11.4l-2.4-3.1h-3.4v-8.2C11.9,13.8,12.5,13.1,13.2,12.9L13.2,12.9z M13.2,35.6
	c-0.8-0.1-1.3-0.8-1.2-1.6v-9.4h2.6l3.5,4.4l2.7-5.2c-1.4,3.9,0.6,8.2,4.5,9.6c2.5,0.9,5.2,0.4,7.2-1.2l0.8,0.8l-1.2,1.2l1.4,1.4
	L13.2,35.6z"/>
<g>
	<g>
		<g>
			<g>
				<path id="SVGID_1_" class="st0" d="M51.8,11.4c0-3.1-2.5-5.5-5.5-5.5c-1.2,0-2.3,0.4-3.2,1C38.3,2.5,32.2,0,25.7,0
					C11.5,0,0,11.5,0,25.7s11.5,25.7,25.7,25.7s25.7-11.5,25.7-25.7c0-3.4-0.7-6.6-1.9-9.7C50.9,15,51.8,13.3,51.8,11.4z M49.8,11.4
					c0,2-1.6,3.6-3.6,3.6s-3.6-1.6-3.6-3.6s1.6-3.6,3.6-3.6C48.2,7.9,49.8,9.5,49.8,11.4z M49.2,25.7c0,13-10.6,23.5-23.5,23.5
					c-13,0-23.6-10.5-23.6-23.5S12.7,2.2,25.7,2.2c6,0,11.6,2.2,16,6.3c-0.6,0.9-0.9,1.9-0.9,3c0,3.1,2.5,5.5,5.5,5.5
					c0.4,0,0.8-0.1,1.2-0.1C48.6,19.6,49.2,22.6,49.2,25.7z"/>
			</g>
			<g>
				<defs>
					<path id="SVGID_2_" d="M51.8,11.4c0-3.1-2.5-5.5-5.5-5.5c-1.2,0-2.3,0.4-3.2,1C38.3,2.5,32.2,0,25.7,0C11.5,0,0,11.5,0,25.7
						s11.5,25.7,25.7,25.7s25.7-11.5,25.7-25.7c0-3.4-0.7-6.6-1.9-9.7C50.9,15,51.8,13.3,51.8,11.4z M49.8,11.4c0,2-1.6,3.6-3.6,3.6
						s-3.6-1.6-3.6-3.6s1.6-3.6,3.6-3.6C48.2,7.9,49.8,9.5,49.8,11.4z M49.2,25.7c0,13-10.6,23.5-23.5,23.5
						c-13,0-23.6-10.5-23.6-23.5S12.7,2.2,25.7,2.2c6,0,11.6,2.2,16,6.3c-0.6,0.9-0.9,1.9-0.9,3c0,3.1,2.5,5.5,5.5,5.5
						c0.4,0,0.8-0.1,1.2-0.1C48.6,19.6,49.2,22.6,49.2,25.7z"/>
				</defs>
				<clipPath id="SVGID_3_">
					<use xlink:href="#SVGID_2_"  style="overflow:visible;"/>
				</clipPath>
				<polygon class="st1" points="-4.6,-6.8 56.4,-6.8 56.4,58.2 -4.6,58.2 				"/>
			</g>
		</g>
	</g>
</g>
</svg>
