<svg xmlns="http://www.w3.org/2000/svg" width="36.642" height="34.045" viewBox="0 0 36.642 34.045"><defs><style>.a{fill:rgba(111,119,121,0.05);}.b{fill:#6f7779;}</style></defs><g transform="translate(-284.47 -94)"><rect class="a" width="28" height="28" transform="translate(284.47 94)"/><path class="b" d="M280.357,156.3l-1.944-1.944a3.6,3.6,0,0,0,.056-.6v-19.41a3.08,3.08,0,0,0-2.877-3.242H252.117a3.08,3.08,0,0,0-2.877,3.242v19.41A3.08,3.08,0,0,0,252.117,157h21.917l2.813,2.813Zm-3.51,1.205-3.565-3.563,1.205-1.205,3.563,3.563Zm-2.358-7.073-1.178,1.178-.75-.75a7.462,7.462,0,0,0,.644-8.418l1.19-1.855,2.445,3.268v8.927Zm-11.9-8.393a5.853,5.853,0,1,1-1.715,4.138A5.853,5.853,0,0,1,262.587,142.038Zm-1.97-.173,2.055-3.917.789,1.5a7.45,7.45,0,0,0-2.025,1.433,7.588,7.588,0,0,0-.819.979Zm-8.5-9.136h23.475a1.487,1.487,0,0,1,1.248,1.613v6.793l-2.548-3.4-2.129,3.317c-.052-.052-.095-.11-.146-.161a7.478,7.478,0,0,0-7-1.982l-2.341-4.462L256.7,145.823l-2.419-3.052h-3.414v-8.428A1.49,1.49,0,0,1,252.117,132.73Zm0,22.636a1.487,1.487,0,0,1-1.248-1.613V144.4h2.624l3.486,4.4L259.7,143.6a7.48,7.48,0,0,0,11.7,8.408l.75.75-1.179,1.179,1.424,1.425Z" transform="translate(40.755 -31.764)"/></g></svg>