<svg xmlns="http://www.w3.org/2000/svg" width="40.272" height="34.497" viewBox="0 0 40.272 34.497"><defs><style>.a{fill:rgba(236,0,0,0.05);}.b{fill:#ec0000;}</style></defs><g transform="translate(-284.47 -94)"><rect class="a" width="28" height="28" transform="translate(284.47 94)"/><g transform="translate(289.995 99.558)"><path class="b" d="M275.619,156.261h-1.141a6.528,6.528,0,0,0-10.29,0H246.629a2.883,2.883,0,0,0-2.879,2.879v20.65a2.883,2.883,0,0,0,2.879,2.879h28.99a2.883,2.883,0,0,0,2.879-2.879V169.87h-1.787v9.92a1.094,1.094,0,0,1-1.092,1.092h-28.99a1.094,1.094,0,0,1-1.092-1.092V164.8h19.047a6.521,6.521,0,0,0,9.491,0h3.132v-.017H278.5V159.14A2.883,2.883,0,0,0,275.619,156.261Zm-30.082,6.751V159.14a1.093,1.093,0,0,1,1.092-1.092h16.559a6.456,6.456,0,0,0,.189,4.964Zm23.794,2.049A4.763,4.763,0,1,1,274.1,160.3a4.763,4.763,0,0,1-4.765,4.762Zm6.146-7.012h.145a1.093,1.093,0,0,1,1.092,1.092v3.871h-1.429a6.453,6.453,0,0,0,.189-4.964Z" transform="translate(-243.75 -153.73)"/><rect class="b" width="1.787" height="1.724" transform="translate(32.961 12.692)"/><rect class="b" width="1.588" height="1.787" transform="translate(3.475 5.708)"/><rect class="b" width="1.588" height="1.787" transform="translate(6.652 5.708)"/><rect class="b" width="1.588" height="1.787" transform="translate(9.829 5.708)"/><rect class="b" width="15.09" height="1.787" transform="translate(4.203 13.121)"/><rect class="b" width="9.928" height="1.787" transform="translate(4.203 16.298)"/><rect class="b" width="3.574" height="1.787" transform="translate(15.719 16.298)"/><path class="b" d="M325.76,509.041h6.751a2.681,2.681,0,1,0,0-5.361H325.76a2.681,2.681,0,0,0,0,5.361Zm0-3.574h6.751a.894.894,0,0,1,0,1.787H325.76a.894.894,0,0,1,0-1.787Z" transform="translate(-318.579 -483.808)"/><path class="b" d="M397.3,69.97l-2.857,3.63-1.616-1.3L391.71,73.7l3.023,2.423,3.972-5.046Z" transform="translate(-369.488 -65.981)"/></g></g></svg>