<svg xmlns="http://www.w3.org/2000/svg" width="33.6" height="34.497" viewBox="0 0 33.6 34.497"><defs><style>.a{fill:rgba(236,0,0,0.05);}.b{fill:#ec0000;}</style></defs><g transform="translate(-284.47 -94)"><rect class="a" width="28" height="28" transform="translate(284.47 94)"/><path class="b" d="M281.641,121.973a2.828,2.828,0,0,0,1.9-2.613l-.7-6.933h.106v-2.252a.752.752,0,0,0-.1-.371l-1.862-3.274a3.211,3.211,0,0,0-5.812-2.669h-15.7a.751.751,0,0,0-.649.374l-3.229,5.564a.751.751,0,0,0-.1.377v2.253a3.344,3.344,0,0,0,1.513,2.8V128.59H255.48v1.5h19.01l.026,1.071,1.488-.036-.234-9.668a.744.744,0,0,0-.492-.685c-.715-.256-1.453-.813-1.408-1.265l.742-7.357a1.225,1.225,0,0,1,1.178-1.065h4.357a1.226,1.226,0,0,1,1.177,1.066l.742,7.356c.048.452-.7,1.009-1.408,1.265a.744.744,0,0,0-.491.682l-.235,9.668,1.488.036.026-1.071h1.532v-1.5h-1.5Zm-3.674-18.245a1.727,1.727,0,1,1-1.729,1.726A1.727,1.727,0,0,1,277.967,103.729Zm-19.446,12.028c.109.01.219.017.331.017a3.3,3.3,0,0,0,2.568-1.23,3.3,3.3,0,0,0,2.568,1.23c.084,0,.167-.007.249-.013v5.2h-1.725v1.5h1.725v6.133h-5.718Zm7.215,12.834V115.272a3.358,3.358,0,0,0,.844-.737,3.339,3.339,0,0,0,5.187,0,3.331,3.331,0,0,0,1.024.843l-.263,2.6L267.5,123.01l1.061,1.062,3.908-3.911a2.86,2.86,0,0,0,1.1,1.388l-2.121,2.112,1.06,1.064,1.8-1.8.14,5.661ZM280.146,109.6H275.79a2.729,2.729,0,0,0-2.659,2.4l-.163,1.624a1.835,1.835,0,0,1-.447-1.2h-1.5a1.844,1.844,0,0,1-3.688,0h-1.5a1.846,1.846,0,0,1-1.844,1.844,1.811,1.811,0,0,1-1.817-1.844h-1.5a1.812,1.812,0,0,1-1.817,1.844,1.846,1.846,0,0,1-1.844-1.844v-2.049l2.91-5.017h14.841c0,.032,0,.063,0,.1a3.211,3.211,0,0,0,5.294,2.448l1.077,1.895A2.558,2.558,0,0,0,280.146,109.6Z" transform="translate(34.515 -2.665)"/></g></svg>