<?xml version="1.0" encoding="utf-8"?>
<!-- Generator: Adobe Illustrator 25.3.1, SVG Export Plug-In . SVG Version: 6.00 Build 0)  -->
<svg version="1.1" id="Layer_1" xmlns="http://www.w3.org/2000/svg" xmlns:xlink="http://www.w3.org/1999/xlink" x="0px" y="0px"
	 viewBox="0 0 52 51.4" style="enable-background:new 0 0 52 51.4;" xml:space="preserve">
<style type="text/css">
	.st0{fill:#EC0000;}
	.st1{clip-path:url(#SVGID_2_);fill:url(#SVGID_3_);}
</style>
<g transform="translate(289.995 99.558)">
	<path class="st0" d="M-250.8-84.8h-1c-2-2.6-5.8-3.1-8.4-1c-0.4,0.3-0.7,0.6-1,1h-16.1c-1.5,0-2.6,1.2-2.6,2.6v18.9
		c0,1.5,1.2,2.6,2.6,2.6h26.6c1.5,0,2.6-1.2,2.6-2.6v-9.1h-1.6v9.1c0,0.6-0.4,1-1,1h-26.6c-0.6,0-1-0.4-1-1V-77h17.5
		c2.3,2.4,6.1,2.5,8.5,0.3c0.1-0.1,0.2-0.2,0.3-0.3h2.9l0,0h1.2v-5.2C-248.1-83.7-249.3-84.8-250.8-84.8z M-278.4-78.6v-3.6
		c0-0.6,0.4-1,1-1h15.2c-0.6,1.5-0.5,3.1,0.2,4.6H-278.4z M-256.5-76.8c-2.4,0-4.4-2-4.4-4.4s2-4.4,4.4-4.4s4.4,2,4.4,4.4
		C-252.2-78.7-254.1-76.8-256.5-76.8L-256.5-76.8L-256.5-76.8z M-250.9-83.2h0.1c0.6,0,1,0.4,1,1v3.6h-1.3
		C-250.4-80.1-250.4-81.7-250.9-83.2L-250.9-83.2z"/>
	<rect x="-249.8" y="-75.5" class="st0" width="1.6" height="1.6"/>
	<rect x="-276.8" y="-81.9" class="st0" width="1.5" height="1.6"/>
	<rect x="-273.9" y="-81.9" class="st0" width="1.5" height="1.6"/>
	<rect x="-271" y="-81.9" class="st0" width="1.5" height="1.6"/>
	<rect x="-276.1" y="-75.1" class="st0" width="13.8" height="1.6"/>
	<rect x="-276.1" y="-72.2" class="st0" width="9.1" height="1.6"/>
	<rect x="-265.6" y="-72.2" class="st0" width="3.3" height="1.6"/>
	<path class="st0" d="M-273.4-64h6.2c1.4,0,2.5-1.1,2.5-2.4c0-1.4-1.1-2.5-2.4-2.5h-0.1h-6.2c-1.4,0-2.4,1.1-2.4,2.5
		C-275.8-65.1-274.7-64-273.4-64z M-273.4-67.3h6.2c0.5,0,0.8,0.4,0.8,0.8s-0.4,0.8-0.8,0.8h-6.2c-0.5,0-0.8-0.4-0.8-0.8
		S-273.8-67.3-273.4-67.3z"/>
	<path class="st0" d="M-254.5-83.5l-2.6,3.3l-1.5-1.2l-1,1.3l2.8,2.2l3.6-4.6L-254.5-83.5z"/>
</g>
<g>
	<g>
		<g>
			<defs>
				<path id="SVGID_1_" d="M51.8,11.4c0-3.1-2.5-5.5-5.5-5.5c-1.2,0-2.3,0.4-3.2,1C38.3,2.5,32.2,0,25.7,0C11.5,0,0,11.5,0,25.7
					s11.5,25.7,25.7,25.7s25.7-11.5,25.7-25.7c0-3.4-0.7-6.6-1.9-9.7C50.9,15,51.8,13.3,51.8,11.4z M49.8,11.4c0,2-1.6,3.6-3.6,3.6
					s-3.6-1.6-3.6-3.6s1.6-3.6,3.6-3.6C48.2,7.9,49.8,9.5,49.8,11.4z M49.2,25.7c0,13-10.6,23.5-23.5,23.5
					c-13,0-23.6-10.5-23.6-23.5S12.7,2.2,25.7,2.2c6,0,11.6,2.2,16,6.3c-0.6,0.9-0.9,1.9-0.9,3c0,3.1,2.5,5.5,5.5,5.5
					c0.4,0,0.8-0.1,1.2-0.1C48.6,19.6,49.2,22.6,49.2,25.7z"/>
			</defs>
			<clipPath id="SVGID_2_">
				<use xlink:href="#SVGID_1_"  style="overflow:visible;"/>
			</clipPath>
			
				<linearGradient id="SVGID_3_" gradientUnits="userSpaceOnUse" x1="-3817.3909" y1="-649.2" x2="-3817.3909" y2="-714.2" gradientTransform="matrix(-1 0 0 -1 -3791.491 -656)">
				<stop  offset="0" style="stop-color:#EC0000"/>
				<stop  offset="1" style="stop-color:#9E3667"/>
			</linearGradient>
			<polygon class="st1" points="-4.6,-6.8 56.4,-6.8 56.4,58.2 -4.6,58.2 			"/>
		</g>
	</g>
</g>
</svg>
