<svg xmlns="http://www.w3.org/2000/svg" width="38" height="38" viewBox="0 0 38 38"><defs><style>.a{fill:rgba(236,0,0,0.05);}.b{fill:#ec0000;}</style></defs><g transform="translate(-884 -4699)"><rect class="a" width="38" height="38" transform="translate(884 4699)"/><path class="b" d="M8.3,35.9a4.291,4.291,0,1,0,4.291,4.291A4.284,4.284,0,0,0,8.3,35.9Zm0,7.08a2.79,2.79,0,1,1,2.79-2.79A2.795,2.795,0,0,1,8.3,42.983Zm5.467-7.256a1,1,0,1,1-1-1A1,1,0,0,1,13.764,35.727Zm2.842,1.016a4.953,4.953,0,0,0-1.352-3.507,4.985,4.985,0,0,0-3.507-1.352c-1.382-.078-5.523-.078-6.9,0a4.978,4.978,0,0,0-3.507,1.348A4.969,4.969,0,0,0-.016,36.739c-.078,1.382-.078,5.523,0,6.9A4.953,4.953,0,0,0,1.336,47.15,4.992,4.992,0,0,0,4.842,48.5c1.382.078,5.523.078,6.9,0a4.953,4.953,0,0,0,3.507-1.352,4.985,4.985,0,0,0,1.352-3.507C16.684,42.262,16.684,38.124,16.606,36.742Zm-1.785,8.384a2.824,2.824,0,0,1-1.591,1.591c-1.1.437-3.716.336-4.933.336s-3.835.1-4.933-.336a2.824,2.824,0,0,1-1.591-1.591c-.437-1.1-.336-3.716-.336-4.933s-.1-3.835.336-4.933a2.824,2.824,0,0,1,1.591-1.591c1.1-.437,3.716-.336,4.933-.336s3.835-.1,4.933.336a2.824,2.824,0,0,1,1.591,1.591c.437,1.1.336,3.716.336,4.933S15.258,44.028,14.821,45.126Z" transform="translate(895.075 4678.175)"/></g></svg>