<?xml version="1.0" encoding="utf-8"?>
<!-- Generator: Adobe Illustrator 25.3.1, SVG Export Plug-In . SVG Version: 6.00 Build 0)  -->
<svg version="1.1" id="Layer_1" xmlns="http://www.w3.org/2000/svg" xmlns:xlink="http://www.w3.org/1999/xlink" x="0px" y="0px"
	 viewBox="0 0 52.1 51.4" style="enable-background:new 0 0 52.1 51.4;" xml:space="preserve">
<style type="text/css">
	.st0{fill:#EC0000;}
	.st1{clip-path:url(#SVGID_2_);fill:url(#SVGID_3_);}
</style>
<path class="st0" d="M38.1,31c1.1-0.4,1.9-1.4,1.9-2.6l-0.7-6.9h0.1v-2.3c0-0.1,0-0.3-0.1-0.4l-1.9-3.3c0.6-1.7-0.3-3.5-2-4.1
	c-1.5-0.5-3.1,0.1-3.9,1.4H15.9c-0.3,0-0.5,0.1-0.6,0.4l-3.2,5.6C12,18.9,12,19,12,19.2v2.3c0,1.1,0.6,2.2,1.5,2.8v13.4H12v1.5h19
	v1.1h1.5l-0.2-9.7c0-0.3-0.2-0.6-0.5-0.7c-0.7-0.3-1.5-0.8-1.4-1.3l0.7-7.4c0.1-0.6,0.6-1,1.2-1.1h4.4c0.6,0,1.1,0.5,1.2,1.1
	l0.7,7.4c0,0.5-0.7,1-1.4,1.3c-0.3,0.1-0.5,0.4-0.5,0.7l-0.2,9.7H38v-1.1h1.5v-1.5H38L38.1,31z M34.4,12.8c1,0,1.7,0.8,1.7,1.7
	c0,1-0.8,1.7-1.7,1.7c-1,0-1.7-0.8-1.7-1.7C32.7,13.5,33.5,12.8,34.4,12.8L34.4,12.8L34.4,12.8z M15,24.8c0.1,0,0.2,0,0.3,0
	c1,0,1.9-0.5,2.6-1.2c0.6,0.8,1.6,1.2,2.6,1.2c0.1,0,0.2,0,0.2,0V30H19v1.5h1.7v6.1H15V24.8z M22.2,37.6V24.3
	c0.3-0.2,0.6-0.4,0.8-0.7c1.2,1.4,3.3,1.7,4.7,0.5c0.2-0.1,0.3-0.3,0.5-0.5c0.3,0.3,0.6,0.6,1,0.8L28.9,27l-5,5l1.1,1.1l3.9-3.9
	c0.2,0.6,0.6,1.1,1.1,1.4l-2.1,2.1l1.1,1.1l1.8-1.8l0.1,5.7L22.2,37.6z M36.6,18.6h-4.4c-1.4,0-2.5,1-2.7,2.4l-0.2,1.6
	c-0.3-0.3-0.4-0.8-0.4-1.2h-1.5c0,1-0.8,1.8-1.8,1.8s-1.8-0.8-1.8-1.8h-1.5c0,1-0.8,1.8-1.8,1.8s-1.8-0.8-1.8-1.8l0,0h-1.5
	c0,1-0.8,1.8-1.8,1.8l0,0c-1,0-1.8-0.8-1.8-1.8v-2l2.9-5h14.8v0.1c0,1.8,1.4,3.2,3.2,3.2c0.8,0,1.5-0.3,2.1-0.8l1.1,1.9
	C37.3,18.7,36.9,18.6,36.6,18.6z"/>
<g>
	<g>
		<g>
			<defs>
				<path id="SVGID_1_" d="M51.8,11.4c0-3.1-2.5-5.5-5.5-5.5c-1.2,0-2.3,0.4-3.2,1C38.3,2.5,32.2,0,25.7,0C11.5,0,0,11.5,0,25.7
					s11.5,25.7,25.7,25.7s25.7-11.5,25.7-25.7c0-3.4-0.7-6.6-1.9-9.7C50.9,15,51.8,13.3,51.8,11.4z M49.8,11.4c0,2-1.6,3.6-3.6,3.6
					s-3.6-1.6-3.6-3.6s1.6-3.6,3.6-3.6C48.2,7.9,49.8,9.5,49.8,11.4z M49.2,25.7c0,13-10.6,23.5-23.5,23.5
					c-13,0-23.6-10.5-23.6-23.5S12.7,2.2,25.7,2.2c6,0,11.6,2.2,16,6.3c-0.6,0.9-0.9,1.9-0.9,3c0,3.1,2.5,5.5,5.5,5.5
					c0.4,0,0.8-0.1,1.2-0.1C48.6,19.6,49.2,22.6,49.2,25.7z"/>
			</defs>
			<clipPath id="SVGID_2_">
				<use xlink:href="#SVGID_1_"  style="overflow:visible;"/>
			</clipPath>
			
				<linearGradient id="SVGID_3_" gradientUnits="userSpaceOnUse" x1="-3823.991" y1="-650.4" x2="-3823.991" y2="-715.4" gradientTransform="matrix(-1 0 0 -1 -3798.0908 -657.2)">
				<stop  offset="0" style="stop-color:#EC0000"/>
				<stop  offset="1" style="stop-color:#9E3667"/>
			</linearGradient>
			<polygon class="st1" points="-4.6,-6.8 56.4,-6.8 56.4,58.2 -4.6,58.2 			"/>
		</g>
	</g>
</g>
</svg>
