<svg xmlns="http://www.w3.org/2000/svg" width="28" height="34.423" viewBox="0 0 28 34.423"><defs><style>.a{fill:rgba(236,0,0,0.05);}.b{fill:#ec0000;}</style></defs><g transform="translate(-284.47 -94)"><rect class="a" width="28" height="28" transform="translate(284.47 94)"/><g transform="translate(289.995 99.336)"><path class="b" d="M488.612,215.43a3.269,3.269,0,1,0,3.266,3.269A3.269,3.269,0,0,0,488.612,215.43Zm0,5.025a1.756,1.756,0,1,1,1.755-1.756,1.756,1.756,0,0,1-1.755,1.756Z" transform="translate(-478.104 -210.135)"/><path class="b" d="M352.94,105.2H337.474a2.777,2.777,0,0,0-2.774,2.776v23.536a2.777,2.777,0,0,0,2.774,2.774h10.354v-1.515H337.474a1.262,1.262,0,0,1-1.261-1.258v-4.626H354.2v4.626a1.262,1.262,0,0,1-1.261,1.261h-.735v1.513h.735a2.777,2.777,0,0,0,2.774-2.774V107.976A2.777,2.777,0,0,0,352.94,105.2Zm-11.629,20.174.484-4.8a1.246,1.246,0,0,1,1.2-1.083h4.429a1.245,1.245,0,0,1,1.2,1.084l.484,4.8Zm9.312,0-.5-4.952a2.775,2.775,0,0,0-2.7-2.445h-4.429a2.776,2.776,0,0,0-2.7,2.445l-.5,4.952h-3.577v-17.4a1.262,1.262,0,0,1,1.261-1.261H352.94a1.263,1.263,0,0,1,1.261,1.261v17.4Z" transform="translate(-334.7 -105.2)"/><rect class="b" width="1.46" height="1.513" transform="translate(14.585 27.571)"/><rect class="b" width="2.69" height="1.513" transform="translate(3.287 23.872)"/></g></g></svg>