<svg xmlns="http://www.w3.org/2000/svg" width="38" height="38" viewBox="0 0 38 38"><defs><style>.a{fill:rgba(255,255,255,0.15);}.b{fill:#fff;}</style></defs><g transform="translate(-783 -4575)"><rect class="a" width="38" height="38" transform="translate(783 4575)"/><path class="b" d="M16.337,11.889l-3.679-1.577a.788.788,0,0,0-.92.227l-1.629,1.99A12.174,12.174,0,0,1,4.29,6.71L6.28,5.081a.786.786,0,0,0,.227-.92L4.93.483a.794.794,0,0,0-.9-.457L.611.814A.788.788,0,0,0,0,1.583a15.238,15.238,0,0,0,15.24,15.24.788.788,0,0,0,.769-.611L16.8,12.8A.8.8,0,0,0,16.337,11.889Z" transform="translate(794 4585.994)"/></g></svg>