<?xml version="1.0" encoding="utf-8"?>
<!-- Generator: Adobe Illustrator 25.3.1, SVG Export Plug-In . SVG Version: 6.00 Build 0)  -->
<svg version="1.1" id="Layer_1" xmlns="http://www.w3.org/2000/svg" xmlns:xlink="http://www.w3.org/1999/xlink" x="0px" y="0px"
	 viewBox="0 0 51.9 51.5" style="enable-background:new 0 0 51.9 51.5;" xml:space="preserve">
<style type="text/css">
	.st0{fill:#6F7779;}
	.st1{clip-path:url(#SVGID_3_);fill:#6F7779;}
</style>
<g transform="translate(289.955 99.366)">
	<rect x="-274.3" y="-76.2" class="st0" width="15.6" height="1.6"/>
	<rect x="-274.3" y="-64.4" class="st0" width="6.4" height="1.6"/>
	<path class="st0" d="M-252.6-74.2l-1.7-1.7c-0.7-0.8-1.9-0.9-2.7-0.3l-3,3h-14.4v1.6h12.8l-2.3,2.3c-0.1,0.1-0.1,0.2-0.2,0.3
		l-1.8,5.3c-0.1,0.4,0.1,0.8,0.5,1c0.2,0.1,0.3,0.1,0.5,0l5.3-1.6c0.1,0,0.2-0.1,0.3-0.2l2.2-2.2v4c0,1.1-0.9,2.1-2.1,2.1l0,0h-14.6
		c-1.1,0-2.1-0.9-2.1-2.1v-17.2h6.7v-0.7h7.8c0.2,0.5,0.5,1,0.9,1.5h-13.8v1.6h15.6v-0.1c2.7,1.3,6.1,0.2,7.4-2.5
		c1.3-2.7,0.2-6.1-2.5-7.4c-1.3-0.7-2.9-0.7-4.3-0.2c-0.3-0.1-0.7-0.2-1.1-0.2h-11.2l-7.1,7.1v18.3c0,2,1.6,3.6,3.6,3.6h14.6
		c2,0,3.6-1.6,3.6-3.6V-68l3.3-3.3c0.4-0.4,0.5-0.9,0.4-1.4C-252-73.4-252.2-73.8-252.6-74.2z M-274.8-81.5l4.1-4.1v4.1H-274.8z
		 M-269.2-82.2v-4.3h9c-1,1-1.6,2.4-1.6,3.9c0,0.2,0,0.3,0,0.5L-269.2-82.2L-269.2-82.2z M-252.2-82.7c0,2.2-1.8,4-4,4
		c-2.2,0-4-1.8-4-4s1.8-4,4-4l0,0C-254-86.7-252.2-84.9-252.2-82.7z M-260.8-65.6l-2.4,0.7l-0.5-0.5l0.8-2.3L-260.8-65.6z
		 M-259.5-66.4l-0.7-0.7l3.4-3.4l-1.1-1.1l-3.4,3.4l-0.8-0.8l4.1-4.1l2.5,2.5L-259.5-66.4z M-253.4-72.6l-0.9,0.9l-2.5-2.5l0.9-0.9
		c0.2,0,0.4,0.1,0.6,0.3l1.7,1.7C-253.5-73-253.4-72.8-253.4-72.6L-253.4-72.6z"/>
	<path class="st0" d="M-253.2-83.9l-1.2-0.9l-2.4,3.1l-1.4-1.1l-0.9,1.2l2.6,2.1L-253.2-83.9z"/>
</g>
<g>
	<g>
		<g>
			<g>
				<path id="SVGID_1_" class="st0" d="M51.8,11.4c0-3.1-2.5-5.5-5.5-5.5c-1.2,0-2.3,0.4-3.2,1C38.3,2.5,32.2,0,25.7,0
					C11.5,0,0,11.5,0,25.7s11.5,25.7,25.7,25.7s25.7-11.5,25.7-25.7c0-3.4-0.7-6.6-1.9-9.7C50.9,15,51.8,13.3,51.8,11.4z M49.8,11.4
					c0,2-1.6,3.6-3.6,3.6s-3.6-1.6-3.6-3.6s1.6-3.6,3.6-3.6C48.2,7.9,49.8,9.5,49.8,11.4z M49.2,25.7c0,13-10.6,23.5-23.5,23.5
					c-13,0-23.6-10.5-23.6-23.5S12.7,2.2,25.7,2.2c6,0,11.6,2.2,16,6.3c-0.6,0.9-0.9,1.9-0.9,3c0,3.1,2.5,5.5,5.5,5.5
					c0.4,0,0.8-0.1,1.2-0.1C48.6,19.6,49.2,22.6,49.2,25.7z"/>
			</g>
			<g>
				<defs>
					<path id="SVGID_2_" d="M51.8,11.4c0-3.1-2.5-5.5-5.5-5.5c-1.2,0-2.3,0.4-3.2,1C38.3,2.5,32.2,0,25.7,0C11.5,0,0,11.5,0,25.7
						s11.5,25.7,25.7,25.7s25.7-11.5,25.7-25.7c0-3.4-0.7-6.6-1.9-9.7C50.9,15,51.8,13.3,51.8,11.4z M49.8,11.4c0,2-1.6,3.6-3.6,3.6
						s-3.6-1.6-3.6-3.6s1.6-3.6,3.6-3.6C48.2,7.9,49.8,9.5,49.8,11.4z M49.2,25.7c0,13-10.6,23.5-23.5,23.5
						c-13,0-23.6-10.5-23.6-23.5S12.7,2.2,25.7,2.2c6,0,11.6,2.2,16,6.3c-0.6,0.9-0.9,1.9-0.9,3c0,3.1,2.5,5.5,5.5,5.5
						c0.4,0,0.8-0.1,1.2-0.1C48.6,19.6,49.2,22.6,49.2,25.7z"/>
				</defs>
				<clipPath id="SVGID_3_">
					<use xlink:href="#SVGID_2_"  style="overflow:visible;"/>
				</clipPath>
				<polygon class="st1" points="-4.6,-6.8 56.4,-6.8 56.4,58.2 -4.6,58.2 				"/>
			</g>
		</g>
	</g>
</g>
</svg>
