<?xml version="1.0" encoding="utf-8"?>
<!-- Generator: Adobe Illustrator 25.3.1, SVG Export Plug-In . SVG Version: 6.00 Build 0)  -->
<svg version="1.1" id="Layer_1" xmlns="http://www.w3.org/2000/svg" xmlns:xlink="http://www.w3.org/1999/xlink" x="0px" y="0px"
	 viewBox="0 0 51.8 51.4" style="enable-background:new 0 0 51.8 51.4;" xml:space="preserve">
<style type="text/css">
	.st0{fill:#EC0000;}
	.st1{clip-path:url(#SVGID_2_);fill:url(#SVGID_3_);}
</style>
<g transform="translate(289.995 99.629)">
	
		<rect x="-264.7" y="-70.3" transform="matrix(0.7071 -0.7071 0.7071 0.7071 -27.2549 -204.7948)" class="st0" width="7.8" height="1.6"/>
	
		<rect x="-259.7" y="-67.9" transform="matrix(0.7091 -0.7051 0.7051 0.7091 -27.7652 -201.5019)" class="st0" width="3.2" height="1.6"/>
	<rect x="-252.3" y="-64.4" class="st0" width="1.6" height="1.5"/>
	<path class="st0" d="M-267.9-61.1v-14.6c0.4-0.2,0.7-0.5,0.9-0.8c1.3,1.6,3.6,1.8,5.2,0.5c0.2-0.2,0.4-0.3,0.5-0.5
		c0.7,0.9,1.7,1.4,2.9,1.4c1.1,0,2.2-0.5,2.9-1.4c0.7,0.9,1.8,1.4,2.9,1.4c0.1,0,0.2,0,0.4,0v9.1h1.6v-9.6c1-0.7,1.7-1.8,1.7-3.1
		v-2.5c0-0.1,0-0.3-0.1-0.4l-3.5-6.1c-0.1-0.3-0.4-0.4-0.7-0.4h-21.5c-0.3,0-0.6,0.2-0.7,0.4l-3.5,6.1c-0.1,0.1-0.1,0.3-0.1,0.4v2.5
		c0,1.2,0.6,2.4,1.7,3.1v14.7h-1.7v1.6h30.2v-1.6L-267.9-61.1z M-277.5-81.1l3.2-5.5h20.5l3.1,5.5v2.3c0,1.1-0.9,2-2,2s-2-0.9-2-2
		h-1.6c0,1.1-0.9,2-2,2s-2-0.9-2-2h-1.6c0,1.1-0.9,2-2,2s-2-0.9-2-2h-1.6c0,1.1-0.9,2-2,2s-2-0.9-2-2l0,0h-1.6c0,1.1-0.9,2-2,2l0,0
		c-1.1,0-2-0.9-2-2L-277.5-81.1z M-275.9-75.2c0.1,0,0.2,0,0.4,0c1.1,0,2.1-0.5,2.8-1.4c0.7,0.9,1.7,1.4,2.8,1.4c0.1,0,0.2,0,0.3,0
		v5.7h-1.9v1.6h1.9v6.7h-6.3L-275.9-75.2z"/>
</g>
<g>
	<g>
		<g>
			<defs>
				<path id="SVGID_1_" d="M51.8,11.4c0-3.1-2.5-5.5-5.5-5.5c-1.2,0-2.3,0.4-3.2,1C38.3,2.5,32.2,0,25.7,0C11.5,0,0,11.5,0,25.7
					s11.5,25.7,25.7,25.7s25.7-11.5,25.7-25.7c0-3.4-0.7-6.6-1.9-9.7C50.9,15,51.8,13.3,51.8,11.4z M49.8,11.4c0,2-1.6,3.6-3.6,3.6
					s-3.6-1.6-3.6-3.6s1.6-3.6,3.6-3.6C48.2,7.9,49.8,9.5,49.8,11.4z M49.2,25.7c0,13-10.6,23.5-23.5,23.5
					c-13,0-23.6-10.5-23.6-23.5S12.7,2.2,25.7,2.2c6,0,11.6,2.2,16,6.3c-0.6,0.9-0.9,1.9-0.9,3c0,3.1,2.5,5.5,5.5,5.5
					c0.4,0,0.8-0.1,1.2-0.1C48.6,19.6,49.2,22.6,49.2,25.7z"/>
			</defs>
			<clipPath id="SVGID_2_">
				<use xlink:href="#SVGID_1_"  style="overflow:visible;"/>
			</clipPath>
			
				<linearGradient id="SVGID_3_" gradientUnits="userSpaceOnUse" x1="-3822.5908" y1="-650.2" x2="-3822.5908" y2="-715.2" gradientTransform="matrix(-1 0 0 -1 -3796.6909 -657)">
				<stop  offset="0" style="stop-color:#EC0000"/>
				<stop  offset="1" style="stop-color:#9E3667"/>
			</linearGradient>
			<polygon class="st1" points="-4.6,-6.8 56.4,-6.8 56.4,58.2 -4.6,58.2 			"/>
		</g>
	</g>
</g>
</svg>
