<svg xmlns="http://www.w3.org/2000/svg" width="32.241" height="34.423" viewBox="0 0 32.241 34.423"><defs><style>.a{fill:rgba(111,119,121,0.05);}.b{fill:#6f7779;}</style></defs><g transform="translate(-284.47 -94)"><rect class="a" width="28" height="28" transform="translate(284.47 94)"/><g transform="translate(289.955 99.366)"><rect class="b" width="15.628" height="1.555" transform="translate(3.147 12.044)"/><rect class="b" width="6.386" height="1.555" transform="translate(3.147 23.807)"/><path class="b" d="M324.206,112.979l-1.68-1.68a1.923,1.923,0,0,0-2.7-.257l-2.987,2.987H302.467v1.555h12.816l-2.3,2.3a.753.753,0,0,0-.18.288l-1.832,5.289a.756.756,0,0,0,.933.971l5.281-1.6a.75.75,0,0,0,.315-.189l2.182-2.182v3.956A2.082,2.082,0,0,1,317.6,126.5H302.95a2.082,2.082,0,0,1-2.08-2.079v-17.2h6.7v-.713h7.8a5.545,5.545,0,0,0,.86,1.47H302.467v1.555H318.1v-.085a5.542,5.542,0,1,0,.558-10.189,3.58,3.58,0,0,0-1.053-.166H306.418l-7.058,7.058v18.273a3.6,3.6,0,0,0,3.592,3.592H317.6a3.6,3.6,0,0,0,3.592-3.592v-5.47l3.273-3.273a1.614,1.614,0,0,0,.42-1.418A2.38,2.38,0,0,0,324.206,112.979ZM301.94,105.71l4.118-4.118v4.118Zm5.63-.756v-4.348h8.985a5.508,5.508,0,0,0-1.575,3.868c0,.162.011.321.024.48Zm16.983-.48a4.033,4.033,0,1,1-4.032-4.031,4.033,4.033,0,0,1,4.032,4.031ZM316,121.615l-2.423.735-.459-.471.809-2.336Zm1.267-.873-.672-.672,3.37-3.371-1.069-1.069L315.523,119l-.761-.761,4.125-4.129,2.5,2.5Zm6.132-6.128-.935.935-2.5-2.5.925-.926a.679.679,0,0,1,.576.251l1.678,1.68A.725.725,0,0,1,323.4,114.613Z" transform="translate(-299.32 -98.96)"/><path class="b" d="M387.52,70.905l-1.188-.935-2.417,3.072-1.368-1.1-.946,1.18,2.559,2.05Z" transform="translate(-363.24 -66.639)"/></g></g></svg>