<?xml version="1.0" encoding="utf-8"?>
<!-- Generator: Adobe Illustrator 25.3.1, SVG Export Plug-In . SVG Version: 6.00 Build 0)  -->
<svg version="1.1" id="Layer_1" xmlns="http://www.w3.org/2000/svg" xmlns:xlink="http://www.w3.org/1999/xlink" x="0px" y="0px"
	 viewBox="0 0 33.7 33.5" style="enable-background:new 0 0 33.7 33.5;" xml:space="preserve">
<style type="text/css">
	.st0{fill:#6F7779;}
	.st1{clip-path:url(#SVGID_3_);fill:#6F7779;}
</style>
<g transform="translate(289.995 99.336)">
	<path class="st0" d="M-273.2-89.1c-1.3,0-2.3,1-2.3,2.3s1,2.3,2.3,2.3s2.3-1,2.3-2.3l0,0C-270.9-88.1-272-89.1-273.2-89.1z
		 M-273.2-85.5c-0.7,0-1.2-0.6-1.2-1.2s0.6-1.2,1.2-1.2s1.2,0.6,1.2,1.2l0,0C-272-86.1-272.5-85.5-273.2-85.5z"/>
	<path class="st0" d="M-267.7-92.8h-11c-1.1,0-2,0.9-2,2v16.7c0,1.1,0.9,2,2,2h7.4v-1.1h-7.4c-0.5,0-0.9-0.4-0.9-0.9v-3.3h12.8v3.3
		c0,0.5-0.4,0.9-0.9,0.9h-0.5v1.1h0.5c1.1,0,2-0.9,2-2v-16.7C-265.8-92-266.7-92.8-267.7-92.8z M-276-78.5l0.3-3.4
		c0.1-0.4,0.4-0.8,0.9-0.8h3.1c0.4,0,0.8,0.3,0.9,0.8l0.3,3.4H-276z M-269.4-78.5l-0.4-3.5c-0.1-1-0.9-1.7-1.9-1.7h-3.1
		c-1,0-1.8,0.8-1.9,1.7l-0.4,3.5h-2.5v-12.4c0-0.5,0.4-0.9,0.9-0.9h11c0.5,0,0.9,0.4,0.9,0.9v12.4H-269.4z"/>
	<rect x="-270.3" y="-73.3" class="st0" width="1" height="1.1"/>
	<rect x="-278.4" y="-75.9" class="st0" width="1.9" height="1.1"/>
</g>
<g>
	<g>
		<g>
			<g>
				<path id="SVGID_1_" class="st0" d="M33.5,7.5c0-2-1.6-3.6-3.6-3.6c-0.8,0-1.5,0.3-2.1,0.6C24.7,1.6,20.7,0,16.5,0
					C7.4,0.2,0,7.6,0,16.8s7.5,16.6,16.6,16.6S33.3,26,33.3,16.8c0-2.2-0.5-4.3-1.2-6.3C33,9.9,33.5,8.8,33.5,7.5z M32.2,7.5
					c0,1.3-1,2.3-2.3,2.3s-2.3-1-2.3-2.3s1-2.3,2.3-2.3C31.2,5.3,32.2,6.3,32.2,7.5z M31.9,16.8C31.9,25.2,25,32,16.7,32
					C8.2,32,1.3,25.2,1.3,16.8S8.2,1.6,16.6,1.6c3.9,0,7.5,1.4,10.4,4.1c-0.4,0.6-0.6,1.2-0.6,1.9c0,2,1.6,3.6,3.6,3.6
					c0.3,0,0.5-0.1,0.8-0.1C31.5,12.9,31.9,14.8,31.9,16.8z"/>
			</g>
			<g>
				<defs>
					<path id="SVGID_2_" d="M33.5,7.5c0-2-1.6-3.6-3.6-3.6c-0.8,0-1.5,0.3-2.1,0.6C24.7,1.6,20.7,0,16.5,0C7.4,0.2,0,7.6,0,16.8
						s7.5,16.6,16.6,16.6S33.3,26,33.3,16.8c0-2.2-0.5-4.3-1.2-6.3C33,9.9,33.5,8.8,33.5,7.5z M32.2,7.5c0,1.3-1,2.3-2.3,2.3
						s-2.3-1-2.3-2.3s1-2.3,2.3-2.3C31.2,5.3,32.2,6.3,32.2,7.5z M31.9,16.8C31.9,25.2,25,32,16.7,32C8.2,32,1.3,25.2,1.3,16.8
						S8.2,1.6,16.6,1.6c3.9,0,7.5,1.4,10.4,4.1c-0.4,0.6-0.6,1.2-0.6,1.9c0,2,1.6,3.6,3.6,3.6c0.3,0,0.5-0.1,0.8-0.1
						C31.5,12.9,31.9,14.8,31.9,16.8z"/>
				</defs>
				<clipPath id="SVGID_3_">
					<use xlink:href="#SVGID_2_"  style="overflow:visible;"/>
				</clipPath>
				<polygon class="st1" points="-3,-4.2 36.5,-4.2 36.5,37.9 -3,37.9 				"/>
			</g>
		</g>
	</g>
</g>
</svg>
