<svg xmlns="http://www.w3.org/2000/svg" width="135.449" height="43.836" viewBox="0 0 135.449 43.836"><defs><style>.a{fill:#00579f;}.b{fill:#faa61a;}</style></defs><path class="a" d="M444.479,153.162H433.507l6.863-42.435h10.972Z" transform="translate(-385.785 -109.958)"/><path class="a" d="M598.093,106.854a27.039,27.039,0,0,0-9.841-1.807c-10.835,0-18.466,5.778-18.512,14.039-.09,6.095,5.463,9.48,9.616,11.512,4.245,2.077,5.688,3.432,5.688,5.283-.043,2.843-3.43,4.153-6.589,4.153a21.838,21.838,0,0,1-10.295-2.257l-1.445-.678-1.535,9.526a33.394,33.394,0,0,0,12.237,2.258c11.513,0,19.008-5.689,19.1-14.492.044-4.831-2.888-8.532-9.21-11.557-3.838-1.942-6.188-3.251-6.188-5.237.045-1.806,1.988-3.656,6.32-3.656a18.644,18.644,0,0,1,8.173,1.625l.992.451,1.492-9.163Z" transform="translate(-499.623 -105.048)"/><path class="a" d="M807.5,138.128c.9-2.438,4.381-11.873,4.381-11.873-.046.091.9-2.483,1.444-4.063l.767,3.656s2.078,10.157,2.529,12.279Zm13.544-27.4h-8.487c-2.617,0-4.606.767-5.735,3.521l-16.3,38.913h11.513s1.9-5.237,2.3-6.365h14.088c.315,1.49,1.309,6.365,1.309,6.365h10.159l-8.852-42.434Z" transform="translate(-694.445 -109.958)"/><path class="a" d="M192.925,110.727,182.18,139.663l-1.174-5.869c-1.987-6.772-8.217-14.129-15.17-17.787l9.842,37.109h11.6l17.246-42.39Z" transform="translate(-154.368 -109.958)"/><path class="b" d="M99,110.727H81.346l-.181.857c13.771,3.521,22.891,12.01,26.638,22.212l-3.838-19.5c-.632-2.71-2.573-3.478-4.966-3.567Z" transform="translate(-81.166 -109.958)"/></svg>