<svg xmlns="http://www.w3.org/2000/svg" width="86.801" height="56.841" viewBox="0 0 86.801 56.841"><defs><style>.a{fill:none;}.b{fill:#003c82;}</style></defs><rect class="a" width="86.801" height="56.84" transform="translate(0 0)"/><path class="b" d="M18.521,55.733a4.965,4.965,0,0,0-3.785,1.609,6.429,6.429,0,0,0,.027,8.307,4.969,4.969,0,0,0,3.775,1.639,5.065,5.065,0,0,0,3.839-1.612,5.893,5.893,0,0,0,1.524-4.22,5.716,5.716,0,0,0-1.524-4.139,5.126,5.126,0,0,0-3.856-1.583M23.685,51.7h5.477V71.28l-5.12.019V66.7c-.312,2.123-3.187,3.993-3.807,4.234a6.566,6.566,0,0,1-3.137.6,8.332,8.332,0,0,1-6-2.689,9.977,9.977,0,0,1-2.767-7.316,10.522,10.522,0,0,1,2.678-7.431,8.533,8.533,0,0,1,6.507-2.9,8.251,8.251,0,0,1,3.307.666,9.006,9.006,0,0,1,2.859,2Z" transform="translate(-8.334 -14.944)"/><path class="b" d="M91.772,55.733a4.961,4.961,0,0,0-3.784,1.609,6.435,6.435,0,0,0,.025,8.307,4.975,4.975,0,0,0,3.776,1.639,5.067,5.067,0,0,0,3.838-1.612,5.893,5.893,0,0,0,1.524-4.22,5.716,5.716,0,0,0-1.524-4.139,5.127,5.127,0,0,0-3.856-1.583M96.936,51.7h5.477V71.28l-5.119.019V66.7c-.31,2.123-3.187,3.993-3.807,4.234a6.559,6.559,0,0,1-3.136.6,8.334,8.334,0,0,1-6-2.689,9.975,9.975,0,0,1-2.768-7.316,10.534,10.534,0,0,1,2.678-7.431,8.538,8.538,0,0,1,6.509-2.9,8.264,8.264,0,0,1,3.307.666,9.019,9.019,0,0,1,2.858,2Z" transform="translate(-15.612 -14.944)"/><path class="b" d="M34.736,51.7h4.911v2a11.947,11.947,0,0,1,3.029-1.957,7.294,7.294,0,0,1,2.777-.551A6.729,6.729,0,0,1,50.4,53.231,6.985,6.985,0,0,1,52.1,58.343V71.279h-4.86V62.708a21.77,21.77,0,0,0-.313-4.657A3.2,3.2,0,0,0,45.834,56.3a3.083,3.083,0,0,0-1.931-.6,3.621,3.621,0,0,0-2.559,1,5.345,5.345,0,0,0-1.482,2.76,22.31,22.31,0,0,0-.216,3.974v7.852H34.736Z" transform="translate(-10.957 -14.944)"/><path class="b" d="M66.87,54.954a4.976,4.976,0,0,0-3.787,1.609,5.8,5.8,0,0,0-1.506,4.131,5.878,5.878,0,0,0,1.532,4.177,4.977,4.977,0,0,0,3.776,1.638A5.062,5.062,0,0,0,70.724,64.9a5.893,5.893,0,0,0,1.524-4.219,5.724,5.724,0,0,0-1.524-4.14,5.125,5.125,0,0,0-3.854-1.583m5.162-11.591h4.913V70.5H72.032V68.433A9.546,9.546,0,0,1,69.146,70.4a8.033,8.033,0,0,1-3.135.6,8.711,8.711,0,0,1-6.562-2.943,10.262,10.262,0,0,1-2.768-7.315,10.515,10.515,0,0,1,2.679-7.431,8.529,8.529,0,0,1,6.506-2.9,8.238,8.238,0,0,1,3.306.666,9,9,0,0,1,2.86,2Z" transform="translate(-13.138 -14.165)"/><path class="b" d="M48.948,17.156a3.263,3.263,0,0,0,3.4-3.105,3.412,3.412,0,0,0-6.8,0,3.263,3.263,0,0,0,3.4,3.105m12.9,8.626-4.377,3.512a1.426,1.426,0,0,0-.471.98v8.965H51.57V30.274a1.425,1.425,0,0,0-.47-.98l-4.378-3.512a.658.658,0,0,1-.126-.872l.622-.893a.642.642,0,0,1,.857-.175l3.032,1.889a6.283,6.283,0,0,0,6.352,0l3.032-1.889a.64.64,0,0,1,.856.175l.622.893a.657.657,0,0,1-.125.872m-7.415-4.757a2.536,2.536,0,0,1,2.646,2.409,2.657,2.657,0,0,1-5.291,0,2.536,2.536,0,0,1,2.645-2.409m18.1-5.371a.7.7,0,0,0,.12-.892L71.4,12.921a.548.548,0,0,0-.809-.122L64.61,17.611a1.99,1.99,0,0,1-1.074.378H57.923c-3.1.077-3.427,2.107-3.427,2.107a3.22,3.22,0,0,0-3.44-2.107H45.621a2.045,2.045,0,0,1-1.077-.372l-5.677-4.461a.727.727,0,0,0-.913.04l-1.518,1.423a.551.551,0,0,0,.005.82l7,6.419a1.583,1.583,0,0,1,.447,1.01l.087,16.811a.608.608,0,0,0,.606.6h18.07a.6.6,0,0,0,.6-.6V34.663a.594.594,0,0,1,.6-.594l2.867.044a.454.454,0,0,0,.471-.578L64.837,23.006a1.113,1.113,0,0,1,.323-.983Zm-12.6,1.5a3.264,3.264,0,0,0,3.4-3.105,3.412,3.412,0,0,0-6.8,0,3.263,3.263,0,0,0,3.4,3.105" transform="translate(-11.108 -10.944)"/></svg>