<svg xmlns="http://www.w3.org/2000/svg" width="101.802" height="43.836" viewBox="0 0 101.802 43.836"><defs><style>.a{fill:#1166b0;}.b{fill:#ffd405;}</style></defs><g transform="translate(0 0)"><path class="a" d="M400,157.7v11.666c1.522-.507,3.611-2.717,3.611-7.1C403.611,158.57,401.751,157.7,400,157.7Z" transform="translate(-351.695 -138.656)"/><path class="a" d="M97.092,0H4.71A4.716,4.716,0,0,0,0,4.71V39.127a4.716,4.716,0,0,0,4.71,4.71H97.092a4.716,4.716,0,0,0,4.71-4.71V4.71A4.716,4.716,0,0,0,97.092,0ZM17.667,36.76l-.362.085a9.84,9.84,0,0,1-2.343.326,6.373,6.373,0,0,1-1.353-.109,7.931,7.931,0,0,1-2.778-1.014C7.5,33.922,5.941,29.321,5.941,24.708c0-6.8,3.019-15,9.758-18.006l.531-.242.857,7.717.036.4-.338.121c-3.393,1.28-5.579,3.876-5.579,8.973,0,3.5,1.715,5.374,4.19,5.652a10.792,10.792,0,0,0,2.258-.278l.012.568-.012,6.738Zm10.881.483c-.362-1.183-3.357-9.975-3.78-11.352a7.562,7.562,0,0,0,1.775-4.625c0-1.473-.507-2.874-2.186-2.91v8.32c0,1.2.036,9.105.072,9.576H20.976C21.025,35.5,21,25.577,21,24.925v-2.56c0-.942-.024-7.729-.072-8.32a25.011,25.011,0,0,1,5.676.435c2.294.592,3.538,2.415,3.538,5.289a10.338,10.338,0,0,1-2,6.243c.471,1.063,2.85,5.917,3.248,6.92Zm5.688-1c.048-1.654.048-8.357.048-9.069V22.993c0-.507-.036-8.043-.048-8.948.869,0,6.086-.471,6.654-.568l.06,5.157c-.568,0-3.007.157-3.285.157v4.13c.314,0,2.1-.157,2.778-.278l.048,5c-.423,0-2.488-.121-2.826-.121v3.719a34.656,34.656,0,0,0,3.466-.06l.06,5.374C40.636,36.554,35.045,36.24,34.236,36.24Zm10.567.145c.06-1.437.1-9.19.1-10.035V22.474c0-.652-.024-7.572-.085-8.441a21.425,21.425,0,0,1,5.954.568c4.07,1.123,4.843,5.386,4.843,7.9C55.611,32.352,49.8,36.385,44.8,36.385Zm17.474-.145h-3.6c.036-1.377.048-8.695.048-9.5V23.355c0-.531-.048-8.574-.048-9.323h3.6c-.012.568-.06,5.64-.06,9.383V26.8C62.216,29.925,62.265,35.516,62.277,36.24ZM75.464,19.563c-.3-.036-3.176-.181-3.418-.181v8.695c0,3.224.012,7.536.048,8.163H68.52c.036-.821.048-5.265.048-8.671V19.382c-.749,0-2.947.145-3.43.181v-5.47c.7.121,4.372.254,4.541.254h1.353c.29,0,3.671-.133,4.432-.254v5.47ZM77.988,36.24c.048-1.654.048-8.357.048-9.069V22.993c0-.507-.036-8.043-.048-8.948.869,0,6.086-.471,6.654-.568l.06,5.157c-.568,0-2.995.157-3.285.157v4.13c.314,0,2.089-.157,2.777-.278l.048,5c-.423,0-2.488-.121-2.826-.121v3.719a34.656,34.656,0,0,0,3.466-.06l.06,5.374C84.388,36.554,78.785,36.24,77.988,36.24Zm10.615,0c.048-1.654.048-8.345.036-9.105V22.981c0-.507-.024-8.357-.06-8.948H92.2c-.012.712-.072,7.161-.072,11.1v5.724c.374,0,2.2,0,3.442-.121l.024,5.821C95.22,36.554,89.846,36.24,88.6,36.24Z" transform="translate(0 0)"/></g><path class="b" d="M56.868,84.1a6.373,6.373,0,0,0,1.353.109,9.841,9.841,0,0,0,2.343-.326l.362-.085-.012-.411.012-6.738-.012-.568a10.792,10.792,0,0,1-2.258.278c-2.476-.278-4.19-2.15-4.19-5.652,0-5.1,2.186-7.692,5.579-8.973l.338-.121-.036-.4L59.489,53.5l-.531.242C52.219,56.748,49.2,64.948,49.2,71.747c0,4.613,1.558,9.214,4.891,11.339A7.931,7.931,0,0,0,56.868,84.1" transform="translate(-43.259 -47.039)"/></svg>