<svg xmlns="http://www.w3.org/2000/svg" width="73.252" height="56.841" viewBox="0 0 73.252 56.841"><defs><style>.a{fill:#ff5f00;}.b{fill:#eb001b;}.c{fill:#f79e1b;}</style></defs><g transform="translate(0 0)"><g transform="translate(3.71 48.29)"><path d="M87.655,85.121V81.348a2.213,2.213,0,0,0-2.389-2.389,2.48,2.48,0,0,0-2.138,1.069,2.2,2.2,0,0,0-2.012-1.069,2.031,2.031,0,0,0-1.761.88v-.755h-1.32v6.036h1.32V81.788c0-1.069.566-1.572,1.446-1.572s1.32.566,1.32,1.572v3.332h1.32V81.788a1.391,1.391,0,0,1,1.446-1.572c.88,0,1.32.566,1.32,1.572v3.332Zm19.555-6.036h-2.138V77.261h-1.32v1.823h-1.195v1.195h1.195v2.767c0,1.383.566,2.2,2.075,2.2a3.517,3.517,0,0,0,1.635-.44l-.377-1.132a2.069,2.069,0,0,1-1.132.314c-.629,0-.88-.377-.88-1.006v-2.7h2.138Zm11.192-.126a1.772,1.772,0,0,0-1.572.88v-.755h-1.32v6.036h1.32v-3.4c0-1.006.44-1.572,1.258-1.572a3.678,3.678,0,0,1,.817.126l.377-1.258A4.15,4.15,0,0,0,118.4,78.959Zm-16.914.629a4.316,4.316,0,0,0-2.452-.629c-1.509,0-2.515.755-2.515,1.949,0,1.006.755,1.572,2.075,1.761l.629.063c.692.126,1.069.314,1.069.629,0,.44-.5.755-1.383.755a3.471,3.471,0,0,1-2.012-.629l-.629,1.006a4.447,4.447,0,0,0,2.578.755c1.761,0,2.767-.817,2.767-1.949,0-1.069-.817-1.635-2.075-1.823l-.629-.063c-.566-.063-1.006-.189-1.006-.566,0-.44.44-.692,1.132-.692a4.533,4.533,0,0,1,1.886.5Zm35.085-.629a1.772,1.772,0,0,0-1.572.88v-.755h-1.32v6.036H135v-3.4c0-1.006.44-1.572,1.258-1.572a3.679,3.679,0,0,1,.817.126l.377-1.258A4.151,4.151,0,0,0,136.573,78.959ZM119.722,82.1a3.02,3.02,0,0,0,3.207,3.144,3.129,3.129,0,0,0,2.138-.692l-.629-1.069a2.541,2.541,0,0,1-1.572.566,1.785,1.785,0,0,1-1.823-1.949,1.855,1.855,0,0,1,1.823-1.949,2.541,2.541,0,0,1,1.572.566l.629-1.069a3.129,3.129,0,0,0-2.138-.692,3.02,3.02,0,0,0-3.207,3.144Zm12.2,0V79.084H130.6v.755a2.272,2.272,0,0,0-1.886-.88,3.146,3.146,0,0,0,0,6.288,2.116,2.116,0,0,0,1.886-.88v.755h1.32Zm-4.842,0a1.827,1.827,0,1,1,3.647,0,1.827,1.827,0,1,1-3.647,0ZM111.3,78.959a3.145,3.145,0,0,0,.063,6.288,3.845,3.845,0,0,0,2.452-.817l-.629-.943a3,3,0,0,1-1.761.629,1.7,1.7,0,0,1-1.823-1.446h4.464v-.5c.063-1.949-1.069-3.207-2.767-3.207Zm0,1.132a1.471,1.471,0,0,1,1.509,1.446h-3.144A1.592,1.592,0,0,1,111.3,80.09ZM144.056,82.1V76.7h-1.32v3.144a2.272,2.272,0,0,0-1.886-.88,3.146,3.146,0,0,0,0,6.288,2.116,2.116,0,0,0,1.886-.88v.755h1.32Zm-4.842,0a1.827,1.827,0,1,1,3.647,0,1.827,1.827,0,1,1-3.647,0Zm-44.14,0V79.084h-1.32v.755a2.272,2.272,0,0,0-1.886-.88,3.146,3.146,0,0,0,0,6.288,2.116,2.116,0,0,0,1.886-.88v.755h1.32Zm-4.9,0a1.827,1.827,0,1,1,3.647,0,1.827,1.827,0,1,1-3.647,0Z" transform="translate(-78.035 -76.695)"/></g><g transform="translate(0 0)"><rect class="a" width="19.806" height="35.588" transform="translate(26.723 4.842)"/><path class="b" d="M104.675,81.889a22.7,22.7,0,0,1,8.614-17.794,22.636,22.636,0,1,0,0,35.588A22.6,22.6,0,0,1,104.675,81.889Z" transform="translate(-76.695 -59.253)"/><path class="c" d="M126.53,81.889A22.612,22.612,0,0,1,89.936,99.683a22.686,22.686,0,0,0,0-35.588A22.612,22.612,0,0,1,126.53,81.889Z" transform="translate(-53.278 -59.253)"/></g></g></svg>