<svg xmlns="http://www.w3.org/2000/svg" width="134.332" height="43.836" viewBox="0 0 134.332 43.836"><defs><style>.a{fill:#0268c3;}</style></defs><path class="a" d="M25.525,0C13.406,0,2.06,9.8.255,21.918S6.83,43.836,18.821,43.836s23.336-9.8,25.27-21.918C45.9,9.8,37.516,0,25.525,0Zm7.607,21.918A13.211,13.211,0,0,1,20.5,32.877c-6.06,0-10.186-4.9-9.283-10.959A13.211,13.211,0,0,1,23.849,10.959C29.909,10.959,34.035,15.858,33.132,21.918Zm55.956,9.928c-4.641,7.091-12.764,11.991-21.4,11.991-12.119,0-20.5-9.8-18.566-21.918S62.27,0,74.261,0c6.962,0,12.764,3.223,15.987,8.38a12.5,12.5,0,0,1,1.16,2.321l-7.865,4.513a2.738,2.738,0,0,1-3.481-.645,9.352,9.352,0,0,0-7.478-3.61A13.211,13.211,0,0,0,59.95,21.918c-.9,6.06,3.223,10.959,9.283,10.959a12.9,12.9,0,0,0,9.67-4.641,2.868,2.868,0,0,1,3.223-.516Zm33.651,11.862-.774-6.189-8.9-8.9a.7.7,0,0,1,.516-1.16h7.091l-2.192-17.277L100.176,43.707H88.7L112.424.129H128.8l5.544,43.578h-11.6Z" transform="translate(-0.01)"/></svg>