<?xml version="1.0" encoding="utf-8"?>
<!-- Generator: Adobe Illustrator 25.3.1, SVG Export Plug-In . SVG Version: 6.00 Build 0)  -->
<svg version="1.1" id="Capa_1" xmlns="http://www.w3.org/2000/svg" xmlns:xlink="http://www.w3.org/1999/xlink" x="0px" y="0px"
	 viewBox="0 0 468.5 201.1" style="enable-background:new 0 0 468.5 201.1;" xml:space="preserve">
<style type="text/css">
	.st0{fill:#FFFFFF;}
</style>
<g>
	<path class="st0" d="M245.8,32.9c-7.1,0-17.5,1.5-26.9,3.8v67.2h14.8V46.6c4-0.7,8.2-1.1,11.7-1.1c14.8,0,18.3,5.1,18.3,15.7v42.6
		h14.8V58.7C278.5,42.5,270.6,32.9,245.8,32.9z M66.4,91.3c-4,0.8-8.5,1.3-12.4,1.3c-20.4,0-33.3-11.8-33.3-35.9
		c0-22,12-34.5,34-34.5c9.4,0,16.8,1.6,23.4,3.8c1.3-4.2,2.4-9.1,2.7-13.6c-7-2.4-15.7-3.6-26.1-3.6C23.3,8.7,5.1,26.2,5.1,57.3
		C5.1,85.7,21.6,106,53,106c10.1,0,20.8-1.9,28.5-5V53.2h-15L66.4,91.3L66.4,91.3z M322.7,32.9c-23.5,0-32.8,15.9-32.8,35.9
		c0,23,12,36.7,36.7,36.7c7.9,0,15-1.2,21.8-4.3c0.9-4.4,1.8-9.5,2.3-13.4c-7.4,3.4-15.6,5.1-23.7,5.1c-13.2,0-20.2-5.8-22-17.7
		h47.2c0.5-3.9,0.8-7.3,0.8-11.4C353,46.8,343.8,32.9,322.7,32.9z M304.7,62.8c1.2-11.4,6.7-17.5,17.2-17.5
		c10.2,0,16.1,6.4,16.1,17.5H304.7z M401.9,47.8c0.7-3.9,1.1-8.1,1.3-12.6h-23.4V9.8c-4.6,0-10.2,0.7-14.8,2.1v70.6
		c0,16.4,9.1,23,23.5,23c4.2,0,8.5-0.5,12.5-2.1c0.8-3.9,1.3-8.5,1.8-12.5c-3.2,1.2-7.3,2-11.6,2c-7.1,0-11.4-3.4-11.4-12.1v-33
		H401.9z M206.9,47.8c0.7-3.9,1.1-8.1,1.3-12.6h-23.4V9.8c-4.6,0-10.2,0.7-14.8,2.1v70.6c0,16.4,9.1,23,23.5,23
		c4.2,0,8.5-0.5,12.5-2.1c0.8-3.9,1.3-8.5,1.8-12.5c-3.2,1.2-7.3,2-11.6,2c-7.1,0-11.4-3.4-11.4-12.1v-33H206.9z M127.7,32.9
		c-23.5,0-32.8,15.9-32.8,35.9c0,23,12,36.7,36.7,36.7c7.9,0,15-1.2,21.8-4.3c0.9-4.4,1.8-9.5,2.3-13.4c-7.4,3.4-15.6,5.1-23.7,5.1
		c-13.2,0-20.2-5.8-22-17.7h47.2c0.5-3.9,0.8-7.3,0.8-11.4C157.9,46.8,148.8,32.9,127.7,32.9z M109.7,62.8
		c1.2-11.4,6.7-17.5,17.2-17.5c10.2,0,16.1,6.4,16.1,17.5H109.7z M456.1,47.8h7.5v-7.5h-7.5V47.8z M456.1,32.8h7.5v-7.5h-7.5V32.8z
		 M441,17.7h7.5v-7.5H441V17.7z M425.9,47.8h7.5v-7.5h-7.5V47.8z M441,32.8h7.5v-7.5H441V32.8z M456.1,10.1v7.5h7.5v-7.5H456.1
		L456.1,10.1z M425.9,32.8h7.5v-7.5h-7.5V32.8z M425.9,17.7h7.5v-7.5h-7.5V17.7z M441,47.8h7.5v-7.5H441V47.8z"/>
	<g>
		<path class="st0" d="M329.6,163.7c0,1-0.1,2.3-0.3,2.9c-0.8-0.1-1.6-0.1-2.6-0.1c-0.9,0-1.7,0.1-2.6,0.2v13.2h-3.5v-15.4
			c1.5-0.5,4-0.9,6-0.9C327.7,163.6,328.9,163.6,329.6,163.7 M306.3,170.4h7.9c0-2.5-1.4-4-3.8-4
			C307.8,166.4,306.5,167.8,306.3,170.4 M317.4,173.3h-11.1c0.4,2.7,2.1,4.1,5.2,4.1c1.9,0,3.8-0.4,5.6-1.2
			c-0.1,0.9-0.3,2.1-0.5,3.1c-1.6,0.7-3.3,1-5.1,1c-5.8,0-8.7-3.1-8.7-8.4c0-4.6,2.2-8.2,7.7-8.2c5,0,7.1,3.2,7.1,7.1
			C317.6,171.6,317.6,172.4,317.4,173.3 M296.5,176.3v-9.5c-0.9-0.2-1.9-0.3-2.8-0.3c-3.5,0-5.1,2.1-5.1,5.6c0,3.1,1.3,5.4,4.4,5.4
			C294.4,177.4,295.5,177,296.5,176.3 M299.9,158.3v21.6h-3.2l-0.2-2c-0.9,1.4-2.3,2.3-4.5,2.3c-4.2,0-7-3-7-8.1
			c0-5.4,3-8.5,8.8-8.5c0.9,0,1.8,0.1,2.6,0.2v-5.1C297.5,158.4,298.8,158.3,299.9,158.3 M282.2,169.5v10.4h-3.5v-9.8
			c0-2.4-0.8-3.6-4.3-3.6c-0.8,0-1.8,0.1-2.8,0.2v13.1h-3.5v-15.4c2.2-0.5,4.7-0.9,6.3-0.9C280.4,163.6,282.2,165.8,282.2,169.5
			 M260.9,176.3v-9.7c-0.7-0.1-1.5-0.2-2.5-0.2c-3.6,0-5.3,2.2-5.3,5.6c0,3.1,1.3,5.4,4.4,5.4C258.9,177.4,260,177,260.9,176.3
			 M264.4,164.5v15.4h-3.2L261,178c-0.9,1.4-2.3,2.2-4.5,2.2c-4.2,0-7-3-7-8.1c0-5.4,3-8.5,8.8-8.5
			C260.7,163.6,262.6,163.8,264.4,164.5 M245.7,177.3c1,0,2-0.2,2.7-0.5c-0.1,0.9-0.2,2-0.4,2.9c-1,0.4-2,0.5-2.9,0.5
			c-3.4,0-5.5-1.5-5.5-5.3v-16.2c1.1-0.3,2.4-0.5,3.5-0.5v5.8h5.5c-0.1,1-0.2,2-0.3,2.9H243v7.5C243,176.6,244,177.3,245.7,177.3
			 M236,169.5v10.4h-3.5v-9.8c0-2.4-0.8-3.6-4.3-3.6c-0.8,0-1.8,0.1-2.8,0.2v13.1H222v-15.4c2.2-0.5,4.7-0.9,6.3-0.9
			C234.2,163.6,236,165.8,236,169.5 M214.7,176.3v-9.7c-0.7-0.1-1.5-0.2-2.5-0.2c-3.6,0-5.3,2.2-5.3,5.6c0,3.1,1.3,5.4,4.4,5.4
			C212.7,177.4,213.8,177,214.7,176.3 M218.2,164.5v15.4H215l-0.2-1.8c-0.9,1.4-2.3,2.2-4.5,2.2c-4.2,0-7-3-7-8.1
			c0-5.4,3-8.5,8.8-8.5C214.5,163.6,216.3,163.8,218.2,164.5 M186.5,179.2c0.1-1.3,0.3-2.1,0.6-3.1c1.8,0.8,4.1,1.2,5.8,1.2
			c2.9,0,4.6-0.9,4.6-2.7s-1.2-2.6-4.2-3.9l-1.6-0.7c-3-1.3-5-2.9-5-6.2c0-3.5,2.5-5.8,7.6-5.8c2.1,0,4,0.3,5.8,0.9
			c-0.1,1.2-0.3,2.2-0.6,3.1c-1.7-0.6-3.7-0.9-5.2-0.9c-2.8,0-4,1-4,2.7c0,1.6,1.2,2.5,3.5,3.5l1.7,0.7c4,1.7,5.7,3.4,5.7,6.4
			c0,3.5-2.8,6-8.1,6C190.4,180.3,188.3,180,186.5,179.2 M170.6,164c-0.1-1.1-0.4-2.2-1-3.2l-5.3-8.9c-0.4-0.7-0.7-1.4-0.8-2.1
			l-0.2,0.4c-1.3,2.2-1.3,4.9,0,7.1l4.2,7.1c1.3,2.2,1.3,4.9,0,7.1l-0.2,0.4c-0.2-0.7-0.4-1.5-0.8-2.1l-3.9-6.5l-2.5-4.2
			c-0.4-0.7-0.7-1.4-0.8-2.1l-0.2,0.4c-1.3,2.2-1.3,4.9,0,7.1l4.2,7.1c1.3,2.2,1.3,4.9,0,7.1l-0.2,0.4c-0.2-0.7-0.4-1.5-0.8-2.1
			l-5.3-8.9c-0.7-1.2-1-2.5-1-3.9c-5.7,1.4-9.6,4.5-9.6,8c0,4.9,7.6,8.9,16.9,8.9s16.9-4,16.9-8.9
			C180.2,168.5,176.3,165.4,170.6,164"/>
		<g>
			<path class="st0" d="M121.8,173.7c0,3.9-2.7,6.1-7.7,6.1H107V158c1.5-0.3,3.7-0.5,5.6-0.5c5.9,0,8.3,2.3,8.3,5.9
				c0,2.3-1.2,4.1-3.2,5C120.6,169.3,121.8,171.4,121.8,173.7z M112.6,159.9c-0.8,0-1.8,0.1-2.6,0.2v7.3h3.7c2.6,0,4.5-1.1,4.5-3.7
				C118.1,161.2,116.6,159.9,112.6,159.9z M119,173.6c0-2.5-1.8-3.8-5.1-3.8H110v7.6h4C117,177.4,119,176.3,119,173.6z"/>
			<path class="st0" d="M138.7,164.2l-6.4,17.7c-1.2,3.3-2.9,5.1-5.8,5.1c-0.5,0-1-0.1-1.5-0.2c0-0.8,0.1-1.6,0.2-2.3
				c0.3,0.1,0.7,0.1,1,0.1c1.9,0,3.1-0.8,4.1-3.8l-6.6-16.6h3l4.9,13.2l4.5-13.2H138.7L138.7,164.2z"/>
		</g>
	</g>
</g>
</svg>
