<?xml version="1.0" encoding="utf-8"?>
<!-- Generator: Adobe Illustrator 25.3.1, SVG Export Plug-In . SVG Version: 6.00 Build 0)  -->
<svg version="1.1" id="Layer_1" xmlns="http://www.w3.org/2000/svg" xmlns:xlink="http://www.w3.org/1999/xlink" x="0px" y="0px"
	 viewBox="0 0 38 38" style="enable-background:new 0 0 38 38;" xml:space="preserve">
<style type="text/css">
	.st0{fill:#EC0000;}
	.st1{clip-path:url(#SVGID_2_);fill:url(#SVGID_3_);}
</style>
<path class="st0" d="M19,14.7c-2.4,0-4.3,1.9-4.3,4.3s1.9,4.3,4.3,4.3c2.4,0,4.3-1.9,4.3-4.3C23.3,16.6,21.4,14.7,19,14.7
	C19,14.7,19,14.7,19,14.7z M19,21.8c-1.5,0-2.8-1.2-2.8-2.8s1.2-2.8,2.8-2.8s2.8,1.2,2.8,2.8C21.8,20.5,20.5,21.8,19,21.8L19,21.8z
	 M24.5,14.5c0,0.6-0.4,1-1,1c-0.6,0-1-0.4-1-1s0.4-1,1-1C24,13.5,24.5,14,24.5,14.5C24.5,14.5,24.5,14.5,24.5,14.5L24.5,14.5z
	 M27.3,15.5c0-1.3-0.5-2.6-1.4-3.5c-0.9-0.9-2.2-1.4-3.5-1.4c-1.4-0.1-5.5-0.1-6.9,0c-1.3,0-2.6,0.5-3.5,1.3
	c-0.9,0.9-1.4,2.2-1.4,3.5c-0.1,1.4-0.1,5.5,0,6.9c0,1.3,0.5,2.6,1.4,3.5c0.9,0.9,2.2,1.4,3.5,1.3c1.4,0.1,5.5,0.1,6.9,0
	c1.3,0,2.6-0.5,3.5-1.4c0.9-0.9,1.4-2.2,1.4-3.5C27.4,21.1,27.4,16.9,27.3,15.5L27.3,15.5z M25.5,23.9c-0.3,0.7-0.9,1.3-1.6,1.6
	c-1.1,0.4-3.7,0.3-4.9,0.3s-3.8,0.1-4.9-0.3c-0.7-0.3-1.3-0.9-1.6-1.6c-0.4-1.1-0.3-3.7-0.3-4.9s-0.1-3.8,0.3-4.9
	c0.3-0.7,0.9-1.3,1.6-1.6c1.1-0.4,3.7-0.3,4.9-0.3c1.2,0,3.8-0.1,4.9,0.3c0.7,0.3,1.3,0.9,1.6,1.6c0.4,1.1,0.3,3.7,0.3,4.9
	S26,22.8,25.5,23.9L25.5,23.9z"/>
<g>
	<defs>
		<path id="SVGID_1_" d="M38,8.5c0-2.2-1.8-4.1-4.1-4.1c-0.9,0-1.7,0.3-2.3,0.7c-3.5-3.2-8-5-12.8-5C8.4,0.2,0,8.6,0,19
			s8.4,18.8,18.8,18.8c10.4,0,18.8-8.4,18.8-18.8c0-2.5-0.5-4.9-1.4-7.1C37.3,11.1,38,9.9,38,8.5z M36.6,8.5c0,1.4-1.2,2.6-2.6,2.6
			c-1.4,0-2.6-1.2-2.6-2.6s1.2-2.6,2.6-2.6C35.4,5.9,36.6,7.1,36.6,8.5z M36.1,19c0,9.5-7.7,17.3-17.3,17.3
			C9.3,36.3,1.6,28.5,1.6,19S9.3,1.7,18.8,1.7c4.4,0,8.5,1.6,11.7,4.6c-0.4,0.6-0.7,1.4-0.7,2.2c0,2.2,1.8,4.1,4.1,4.1
			c0.3,0,0.6,0,0.9-0.1C35.7,14.6,36.1,16.7,36.1,19z"/>
	</defs>
	<clipPath id="SVGID_2_">
		<use xlink:href="#SVGID_1_"  style="overflow:visible;"/>
	</clipPath>
	
		<linearGradient id="SVGID_3_" gradientUnits="userSpaceOnUse" x1="-1190.6908" y1="42.8417" x2="-1190.6908" y2="-4.8417" gradientTransform="matrix(-1 0 0 -1 -1171.6908 38)">
		<stop  offset="0" style="stop-color:#EC0000"/>
		<stop  offset="1" style="stop-color:#9E3667"/>
	</linearGradient>
	<polygon class="st1" points="-3.4,-4.8 41.4,-4.8 41.4,42.8 -3.4,42.8 	"/>
</g>
</svg>
