<?xml version="1.0" encoding="utf-8"?>
<!-- Generator: Adobe Illustrator 25.3.1, SVG Export Plug-In . SVG Version: 6.00 Build 0)  -->
<svg version="1.1" id="Layer_1" xmlns="http://www.w3.org/2000/svg" xmlns:xlink="http://www.w3.org/1999/xlink" x="0px" y="0px"
	 viewBox="0 0 53.6 57" style="enable-background:new 0 0 53.6 57;" xml:space="preserve">
<style type="text/css">
	.st0{fill:url(#SVGID_1_);}
	.st1{fill:#FFFFFF;}
</style>
<linearGradient id="SVGID_1_" gradientUnits="userSpaceOnUse" x1="-1182.4708" y1="55.9995" x2="-1182.4708" y2="-0.9995" gradientTransform="matrix(-1 0 0 -1 -1155.6908 56)">
	<stop  offset="0" style="stop-color:#EC0000"/>
	<stop  offset="1" style="stop-color:#9E3667"/>
</linearGradient>
<polygon class="st0" points="0,0 53.6,0 53.6,57 0,57 "/>
<g>
	<path class="st1" d="M26.6,51C14.2,51,4.1,40.9,4.1,28.5C4.1,16.1,14.2,6,26.6,6c6,0,11.7,2.3,15.9,6.6l-1.3,1.3
		c-3.9-3.9-9.1-6-14.6-6c-11.4,0-20.6,9.3-20.6,20.6s9.3,20.6,20.6,20.6c11.4,0,20.6-9.3,20.6-20.6c0-2.8-0.5-5.5-1.6-8l1.7-0.7
		c1.2,2.8,1.8,5.7,1.8,8.8C49.1,40.9,39,51,26.6,51z"/>
	<path class="st1" d="M44.6,20.8c-2.7,0-4.9-2.2-4.9-4.9s2.2-4.9,4.9-4.9c2.7,0,4.9,2.2,4.9,4.9S47.3,20.8,44.6,20.8z M44.6,12.9
		c-1.7,0-3.1,1.4-3.1,3.1s1.4,3.1,3.1,3.1c1.7,0,3.1-1.4,3.1-3.1S46.4,12.9,44.6,12.9z"/>
</g>
<g transform="translate(239 1083.836)">
	<path class="st1" d="M-206.4-1058.7l-0.9-0.9l-6.1,5.7l-2.6-2.4l-0.9,0.9l3.5,3.3L-206.4-1058.7z"/>
	<path class="st1" d="M-223.3-1066.9h-1.1v1.1h1.1V-1066.9z"/>
	<path class="st1" d="M-221.2-1065.9h18.9v-1.1h-18.9V-1065.9z"/>
	<path class="st1" d="M-201.4-1064.8v13.5l-10.8,8.9l-10.8-8.9v-13.5h-1.3v14.2l12.1,10l12.1-10v-14.2H-201.4z"/>
	<path class="st1" d="M-200.1-1066.9h-1.1v1.1h1.1L-200.1-1066.9z"/>
</g>
</svg>
