<?xml version="1.0" encoding="utf-8"?>
<!-- Generator: Adobe Illustrator 25.3.1, SVG Export Plug-In . SVG Version: 6.00 Build 0)  -->
<svg version="1.1" id="Layer_1" xmlns="http://www.w3.org/2000/svg" xmlns:xlink="http://www.w3.org/1999/xlink" x="0px" y="0px"
	 viewBox="0 0 53.8 57" style="enable-background:new 0 0 53.8 57;" xml:space="preserve">
<style type="text/css">
	.st0{fill:url(#SVGID_1_);}
	.st1{fill:#FFFFFF;}
</style>
<linearGradient id="SVGID_1_" gradientUnits="userSpaceOnUse" x1="-2490.5908" y1="712" x2="-2490.5908" y2="769" gradientTransform="matrix(-1 0 0 1 -2463.6909 -712)">
	<stop  offset="0" style="stop-color:#EC0000"/>
	<stop  offset="1" style="stop-color:#9E3667"/>
</linearGradient>
<polygon class="st0" points="0.1,0 53.7,0 53.7,57 0.1,57 "/>
<g>
	<path class="st1" d="M26.7,51C14.3,51,4.2,40.9,4.2,28.5S14.3,6,26.7,6c6,0,11.7,2.3,15.9,6.6l-1.3,1.3c-3.9-3.9-9.1-6-14.6-6
		c-11.4,0-20.6,9.3-20.6,20.6s9.3,20.6,20.6,20.6c11.4,0,20.6-9.3,20.6-20.6c0-2.8-0.5-5.5-1.6-8l1.7-0.7c1.2,2.8,1.8,5.7,1.8,8.8
		C49.2,40.9,39.1,51,26.7,51z"/>
	<path class="st1" d="M44.8,20.8c-2.7,0-4.9-2.2-4.9-4.9s2.2-4.9,4.9-4.9s4.9,2.2,4.9,4.9S47.4,20.8,44.8,20.8z M44.8,12.9
		c-1.7,0-3.1,1.4-3.1,3.1s1.4,3.1,3.1,3.1c1.7,0,3.1-1.4,3.1-3.1S46.5,12.9,44.8,12.9z"/>
</g>
<g transform="translate(491.841 1144.373)">
	<path class="st1" d="M-465.2-1108.4c-1.3,0-2.7-0.3-3.8-1l0.6-1c1,0.6,2.1,0.8,3.2,0.8c2,0,3.1-0.9,3.1-2.4c0.1-1-0.5-1.8-1.3-2.2
		l0.6-1c1.2,0.6,2,1.9,2,3.3C-460.9-1109.7-462.5-1108.4-465.2-1108.4z"/>
	<path class="st1" d="M-464.5-1114.5l-1.2-0.5l0.5-1.1l1.2,0.5L-464.5-1114.5z"/>
	<path class="st1" d="M-466.8-1115.6c-1.3-0.6-2-1.8-2-3.2c0-2.1,1.5-3.3,4.1-3.3c1.2,0,2.3,0.2,3.4,0.7l-0.5,1.1
		c-0.9-0.4-1.9-0.6-2.9-0.6c-1.3,0-2.9,0.4-2.9,2.1c0,0.9,0.5,1.8,1.4,2.1L-466.8-1115.6z"/>
	<path class="st1" d="M-464.5-1121.5h-1.2v-1.9h1.2V-1121.5z"/>
	<path class="st1" d="M-464.5-1106.9h-1.2v-2.1h1.2V-1106.9z"/>
	<path class="st1" d="M-451.4-1121.2c-1.3-3.2-3.7-5.8-6.8-7.3l2.5-0.8l-0.5-1.5l-5.1,1.6l1.6,5.1l1.5-0.5l-0.8-2.7
		c6.5,3.2,9.1,11.1,5.9,17.6c-1.8,3.6-5.2,6.2-9.1,7v1.6c8-1.4,13.3-9.1,11.8-17C-450.7-1119.2-451-1120.2-451.4-1121.2
		L-451.4-1121.2z"/>
	<path class="st1" d="M-467.8-1102.7c-0.8-0.2-1.5-0.4-2.2-0.7c-6.7-2.8-9.8-10.5-7-17.2c1.3-3.1,3.8-5.6,7-7l-0.6-1.4
		c-7.5,3.2-11,11.8-7.8,19.2c1.9,4.5,5.9,7.7,10.6,8.7V-1102.7z"/>
	<path class="st1" d="M-464.2-1102.5h-1.7v1.6h1.7V-1102.5z"/>
</g>
</svg>
