<?xml version="1.0" encoding="utf-8"?>
<!-- Generator: Adobe Illustrator 25.3.1, SVG Export Plug-In . SVG Version: 6.00 Build 0)  -->
<svg version="1.1" id="Layer_1" xmlns="http://www.w3.org/2000/svg" xmlns:xlink="http://www.w3.org/1999/xlink" x="0px" y="0px"
	 viewBox="0 0 38 38" style="enable-background:new 0 0 38 38;" xml:space="preserve">
<style type="text/css">
	.st0{fill:#EC0000;}
	.st1{clip-path:url(#SVGID_2_);fill:url(#SVGID_3_);}
</style>
<path class="st0" d="M14.5,27.2h-3.4V16.3h3.4L14.5,27.2z M12.8,14.8c-1.1,0-2-0.9-2-2s0.9-2,2-2s2,0.9,2,2c0,0,0,0,0,0
	C14.8,13.9,13.9,14.8,12.8,14.8z M27.2,27.2h-3.4v-5.3c0-1.3,0-2.9-1.8-2.9c-1.8,0-2,1.4-2,2.8v5.4h-3.4V16.3h3.3v1.5h0
	c0.7-1.1,1.9-1.8,3.2-1.8c3.4,0,4.1,2.3,4.1,5.2L27.2,27.2L27.2,27.2z"/>
<g>
	<defs>
		<path id="SVGID_1_" d="M38,8.5c0-2.2-1.8-4.1-4.1-4.1c-0.9,0-1.7,0.3-2.3,0.7c-3.5-3.2-8-5-12.8-5C8.4,0.2,0,8.6,0,19
			s8.4,18.8,18.8,18.8c10.4,0,18.8-8.4,18.8-18.8c0-2.5-0.5-4.9-1.4-7.1C37.3,11.1,38,9.9,38,8.5z M36.6,8.5c0,1.4-1.2,2.6-2.6,2.6
			c-1.4,0-2.6-1.2-2.6-2.6s1.2-2.6,2.6-2.6C35.4,5.9,36.6,7.1,36.6,8.5z M36.1,19c0,9.5-7.7,17.3-17.3,17.3
			C9.3,36.3,1.6,28.5,1.6,19S9.3,1.7,18.8,1.7c4.4,0,8.5,1.6,11.7,4.6c-0.4,0.6-0.7,1.4-0.7,2.2c0,2.2,1.8,4.1,4.1,4.1
			c0.3,0,0.6,0,0.9-0.1C35.7,14.6,36.1,16.7,36.1,19z"/>
	</defs>
	<clipPath id="SVGID_2_">
		<use xlink:href="#SVGID_1_"  style="overflow:visible;"/>
	</clipPath>
	
		<linearGradient id="SVGID_3_" gradientUnits="userSpaceOnUse" x1="-1190.6908" y1="42.8417" x2="-1190.6908" y2="-4.8417" gradientTransform="matrix(-1 0 0 -1 -1171.6908 38)">
		<stop  offset="0" style="stop-color:#EC0000"/>
		<stop  offset="1" style="stop-color:#9E3667"/>
	</linearGradient>
	<polygon class="st1" points="-3.4,-4.8 41.4,-4.8 41.4,42.8 -3.4,42.8 	"/>
</g>
</svg>
