<?xml version="1.0" encoding="utf-8"?>
<!-- Generator: Adobe Illustrator 25.3.1, SVG Export Plug-In . SVG Version: 6.00 Build 0)  -->
<svg version="1.1" id="Layer_1" xmlns="http://www.w3.org/2000/svg" xmlns:xlink="http://www.w3.org/1999/xlink" x="0px" y="0px"
	 viewBox="0 0 53.6 57.2" style="enable-background:new 0 0 53.6 57.2;" xml:space="preserve">
<style type="text/css">
	.st0{fill:url(#SVGID_1_);}
	.st1{fill:#FFFFFF;}
</style>
<linearGradient id="SVGID_1_" gradientUnits="userSpaceOnUse" x1="-1170.4708" y1="58.1353" x2="-1170.4708" y2="0.6357" gradientTransform="matrix(-1 0 0 -1 -1143.6908 58)">
	<stop  offset="0" style="stop-color:#EC0000"/>
	<stop  offset="1" style="stop-color:#9E3667"/>
</linearGradient>
<polygon class="st0" points="0,-0.1 53.6,-0.1 53.6,57.4 0,57.4 "/>
<g>
	<path class="st1" d="M26.6,51.1C14.2,51.1,4.1,41,4.1,28.6c0-12.4,10.1-22.5,22.5-22.5c6,0,11.7,2.3,15.9,6.6L41.2,14
		c-3.9-3.9-9.1-6-14.6-6C15.2,8,5.9,17.2,5.9,28.6s9.3,20.6,20.6,20.6c11.4,0,20.6-9.3,20.6-20.6c0-2.8-0.5-5.5-1.6-8l1.7-0.7
		c1.2,2.8,1.8,5.7,1.8,8.8C49.1,41,39,51.1,26.6,51.1z"/>
	<path class="st1" d="M44.6,20.9c-2.7,0-4.9-2.2-4.9-4.9s2.2-4.9,4.9-4.9c2.7,0,4.9,2.2,4.9,4.9S47.3,20.9,44.6,20.9z M44.6,13
		c-1.7,0-3.1,1.4-3.1,3.1s1.4,3.1,3.1,3.1c1.7,0,3.1-1.4,3.1-3.1S46.4,13,44.6,13z"/>
</g>
<g transform="translate(291.793 1220.844)">
	<path class="st1" d="M-260.3-1198.1h-9.4v-1.2c0-2.6,2.1-4.7,4.7-4.7c2.6,0,4.7,2.1,4.7,4.7V-1198.1z M-259.1-1198.1v-1.2
		c0-3.3-2.7-6-6-6s-6,2.7-6,6v1.2h-8.8l6,18.9h6.9v-1.2h-6l-5.2-16.4h26.2l-5.2,16.4h-5.6v1.2h6.5l6-18.9H-259.1z"/>
	<path class="st1" d="M-264.1-1180.4h-1.3v1.2h1.3L-264.1-1180.4z"/>
</g>
</svg>
