<?xml version="1.0" encoding="utf-8"?>
<!-- Generator: Adobe Illustrator 25.3.1, SVG Export Plug-In . SVG Version: 6.00 Build 0)  -->
<svg version="1.1" id="Layer_1" xmlns="http://www.w3.org/2000/svg" xmlns:xlink="http://www.w3.org/1999/xlink" x="0px" y="0px"
	 viewBox="0 0 53.8 57" style="enable-background:new 0 0 53.8 57;" xml:space="preserve">
<style type="text/css">
	.st0{fill:#EC0000;}
	.st1{clip-path:url(#SVGID_2_);fill:url(#SVGID_3_);}
</style>
<g transform="translate(491.841 1144.373)">
	<path class="st0" d="M-465.3-1108.4c-1.3,0-2.7-0.3-3.8-1l0.6-1c1,0.6,2.1,0.8,3.2,0.8c2,0,3.1-0.9,3.1-2.4c0.1-1-0.5-1.8-1.3-2.2
		l0.6-1c1.2,0.6,2,1.9,2,3.3C-461-1109.7-462.6-1108.4-465.3-1108.4z"/>
	<path class="st0" d="M-464.6-1114.5l-1.2-0.5l0.5-1.1l1.2,0.5L-464.6-1114.5z"/>
	<path class="st0" d="M-466.9-1115.6c-1.3-0.6-2-1.8-2-3.2c0-2.1,1.5-3.3,4.1-3.3c1.2,0,2.3,0.2,3.4,0.7l-0.5,1.1
		c-0.9-0.4-1.9-0.6-2.9-0.6c-1.3,0-2.9,0.4-2.9,2.1c0,0.9,0.5,1.8,1.4,2.1L-466.9-1115.6z"/>
	<path class="st0" d="M-464.6-1121.5h-1.2v-1.9h1.2V-1121.5z"/>
	<path class="st0" d="M-464.6-1106.9h-1.2v-2.1h1.2V-1106.9z"/>
	<path class="st0" d="M-451.5-1121.2c-1.3-3.2-3.7-5.8-6.8-7.3l2.5-0.8l-0.5-1.5l-5.1,1.6l1.6,5.1l1.5-0.5l-0.8-2.7
		c6.5,3.2,9.1,11.1,5.9,17.6c-1.8,3.6-5.2,6.2-9.1,7v1.6c8-1.4,13.3-9.1,11.8-17C-450.8-1119.2-451.1-1120.2-451.5-1121.2
		L-451.5-1121.2z"/>
	<path class="st0" d="M-467.9-1102.7c-0.8-0.2-1.5-0.4-2.2-0.7c-6.7-2.8-9.8-10.5-7-17.2c1.3-3.1,3.8-5.6,7-7l-0.6-1.4
		c-7.5,3.2-11,11.8-7.8,19.2c1.9,4.5,5.9,7.7,10.6,8.7V-1102.7z"/>
	<path class="st0" d="M-464.3-1102.5h-1.7v1.6h1.7V-1102.5z"/>
</g>
<g>
	<defs>
		<path id="SVGID_1_" d="M52.8,14.2c0-3.1-2.5-5.5-5.5-5.5c-1.2,0-2.3,0.4-3.2,1c-4.8-4.4-10.9-6.9-17.4-6.9C12.5,2.8,1,14.3,1,28.5
			s11.5,25.7,25.7,25.7c14.2,0,25.7-11.5,25.7-25.7c0-3.4-0.7-6.6-1.9-9.7C51.9,17.8,52.8,16.1,52.8,14.2z M50.8,14.2
			c0,2-1.6,3.6-3.6,3.6c-2,0-3.6-1.6-3.6-3.6s1.6-3.6,3.6-3.6C49.2,10.7,50.8,12.3,50.8,14.2z M50.2,28.5c0,13-10.6,23.5-23.5,23.5
			c-13,0-23.5-10.6-23.5-23.5S13.7,5,26.7,5c6,0,11.6,2.2,16,6.3c-0.6,0.9-0.9,1.9-0.9,3c0,3.1,2.5,5.5,5.5,5.5
			c0.4,0,0.8-0.1,1.2-0.1C49.6,22.4,50.2,25.4,50.2,28.5z"/>
	</defs>
	<clipPath id="SVGID_2_">
		<use xlink:href="#SVGID_1_"  style="overflow:visible;"/>
	</clipPath>
	
		<linearGradient id="SVGID_3_" gradientUnits="userSpaceOnUse" x1="-1182.5908" y1="60.0062" x2="-1182.5908" y2="-5.0062" gradientTransform="matrix(-1 0 0 -1 -1155.6908 56)">
		<stop  offset="0" style="stop-color:#EC0000"/>
		<stop  offset="1" style="stop-color:#9E3667"/>
	</linearGradient>
	<polygon class="st1" points="-3.6,-4 57.4,-4 57.4,61 -3.6,61 	"/>
</g>
</svg>
